M48
; DRILL file {KiCad 7.0.1-3b83917a11~171~ubuntu20.04.1} date Tue 14 Mar 2023 09:38:23 AM CET
; FORMAT={-:-/ absolute / metric / decimal}
; #@! TF.CreationDate,2023-03-14T09:38:23+01:00
; #@! TF.GenerationSoftware,Kicad,Pcbnew,7.0.1-3b83917a11~171~ubuntu20.04.1
; #@! TF.FileFunction,Plated,1,2,PTH
FMAT,2
METRIC
; #@! TA.AperFunction,Plated,PTH,ComponentDrill
T1C0.700
; #@! TA.AperFunction,Plated,PTH,ComponentDrill
T2C0.800
; #@! TA.AperFunction,Plated,PTH,ComponentDrill
T3C0.900
; #@! TA.AperFunction,Plated,PTH,ComponentDrill
T4C1.020
; #@! TA.AperFunction,Plated,PTH,ComponentDrill
T5C1.400
%
G90
G05
T1
X71.882Y-48.26
X71.882Y-60.96
X71.882Y-73.66
X71.882Y-86.36
X71.882Y-99.06
X71.882Y-111.76
X79.502Y-48.26
X79.502Y-60.96
X79.502Y-73.66
X79.502Y-86.36
X79.502Y-99.06
X79.502Y-111.76
X98.044Y-67.31
X98.044Y-74.93
X98.044Y-86.36
X98.044Y-93.98
X101.854Y-67.31
X101.854Y-74.93
X101.854Y-86.36
X101.854Y-93.98
X105.664Y-67.31
X105.664Y-74.93
X105.664Y-86.36
X105.664Y-93.98
X194.31Y-40.64
X194.31Y-48.26
T2
X85.09Y-63.5
X85.09Y-66.04
X85.09Y-69.85
X85.09Y-72.39
X85.09Y-76.2
X85.09Y-78.74
X85.09Y-82.55
X85.09Y-85.09
X85.09Y-88.9
X85.09Y-91.44
X85.09Y-95.25
X85.09Y-97.79
X92.71Y-63.5
X92.71Y-66.04
X92.71Y-69.85
X92.71Y-72.39
X92.71Y-76.2
X92.71Y-78.74
X92.71Y-82.55
X92.71Y-85.09
X92.71Y-88.9
X92.71Y-91.44
X92.71Y-95.25
X92.71Y-97.79
X108.712Y-73.152
X108.712Y-88.392
X113.279Y-73.142
X113.279Y-80.762
X115.819Y-73.142
X115.819Y-80.762
X116.646Y-90.17
X118.359Y-73.142
X118.359Y-80.762
X120.899Y-73.142
X120.899Y-80.762
X123.439Y-73.142
X123.439Y-80.762
X124.146Y-90.17
X125.979Y-73.142
X125.979Y-80.762
X128.519Y-73.142
X128.519Y-80.762
X175.26Y-49.53
X175.26Y-52.07
X175.26Y-54.61
X175.26Y-57.15
X175.26Y-59.69
X175.26Y-62.23
X175.26Y-64.77
X175.26Y-67.31
X175.26Y-69.85
X175.26Y-72.39
X175.26Y-82.55
X175.26Y-85.09
X175.26Y-87.63
X175.26Y-90.17
X175.26Y-92.71
X175.26Y-95.25
X175.26Y-97.79
X175.26Y-100.33
X175.26Y-102.87
X175.26Y-105.41
X182.88Y-49.53
X182.88Y-52.07
X182.88Y-54.61
X182.88Y-57.15
X182.88Y-59.69
X182.88Y-62.23
X182.88Y-64.77
X182.88Y-67.31
X182.88Y-69.85
X182.88Y-72.39
X182.88Y-82.55
X182.88Y-85.09
X182.88Y-87.63
X182.88Y-90.17
X182.88Y-92.71
X182.88Y-95.25
X182.88Y-97.79
X182.88Y-100.33
X182.88Y-102.87
X182.88Y-105.41
X187.96Y-77.47
X187.96Y-84.97
X189.23Y-44.45
X189.23Y-51.95
X193.04Y-68.58
X193.04Y-76.2
T3
X177.8Y-40.64
X180.34Y-40.64
T4
X135.89Y-59.69
X135.89Y-62.23
X135.89Y-64.77
X135.89Y-67.31
X135.89Y-69.85
X135.89Y-72.39
X135.89Y-74.93
X135.89Y-77.47
X135.89Y-80.01
X135.89Y-82.55
X135.89Y-85.09
X135.89Y-87.63
X135.89Y-90.17
X135.89Y-92.71
X135.89Y-95.25
X161.29Y-59.69
X161.29Y-62.23
X161.29Y-64.77
X161.29Y-67.31
X161.29Y-69.85
X161.29Y-72.39
X161.29Y-74.93
X161.29Y-77.47
X161.29Y-80.01
X161.29Y-82.55
X161.29Y-85.09
X161.29Y-87.63
X161.29Y-90.17
X161.29Y-92.71
X161.29Y-95.25
T5
X61.722Y-48.26
X61.722Y-53.34
X61.722Y-60.96
X61.722Y-66.04
X61.722Y-73.66
X61.722Y-78.74
X61.722Y-86.36
X61.722Y-91.44
X61.722Y-99.06
X61.722Y-104.14
X61.722Y-111.76
X61.722Y-116.84
X100.33Y-41.91
X105.41Y-41.91
X113.03Y-41.91
X118.11Y-41.91
X125.73Y-41.91
X130.81Y-41.91
X138.43Y-41.91
X143.51Y-41.91
X205.74Y-48.26
X205.74Y-53.34
X205.74Y-60.96
X205.74Y-66.04
X205.74Y-73.66
X205.74Y-78.74
X205.74Y-86.36
X205.74Y-91.44
X205.74Y-99.06
X205.74Y-104.14
X205.74Y-111.76
X205.74Y-116.84
T0
M30
