G04 #@! TF.GenerationSoftware,KiCad,Pcbnew,7.0.1-3b83917a11~171~ubuntu20.04.1*
G04 #@! TF.CreationDate,2023-03-14T09:38:21+01:00*
G04 #@! TF.ProjectId,FluidNC-BOB v1.1,466c7569-644e-4432-9d42-4f422076312e,rev?*
G04 #@! TF.SameCoordinates,Original*
G04 #@! TF.FileFunction,Legend,Bot*
G04 #@! TF.FilePolarity,Positive*
%FSLAX46Y46*%
G04 Gerber Fmt 4.6, Leading zero omitted, Abs format (unit mm)*
G04 Created by KiCad (PCBNEW 7.0.1-3b83917a11~171~ubuntu20.04.1) date 2023-03-14 09:38:21*
%MOMM*%
%LPD*%
G01*
G04 APERTURE LIST*
%ADD10R,1.600000X1.600000*%
%ADD11O,1.600000X1.600000*%
%ADD12C,1.600000*%
%ADD13R,1.800000X1.800000*%
%ADD14C,1.800000*%
%ADD15C,1.400000*%
%ADD16O,1.400000X1.400000*%
%ADD17C,3.000000*%
%ADD18R,2.000000X2.000000*%
%ADD19C,2.000000*%
%ADD20R,2.600000X2.600000*%
%ADD21C,2.600000*%
G04 APERTURE END LIST*
%LPC*%
D10*
X113279000Y-80762000D03*
D11*
X115819000Y-80762000D03*
X118359000Y-80762000D03*
X120899000Y-80762000D03*
X123439000Y-80762000D03*
X125979000Y-80762000D03*
X128519000Y-80762000D03*
X128519000Y-73142000D03*
X125979000Y-73142000D03*
X123439000Y-73142000D03*
X120899000Y-73142000D03*
X118359000Y-73142000D03*
X115819000Y-73142000D03*
X113279000Y-73142000D03*
D10*
X175260000Y-82550000D03*
D11*
X175260000Y-85090000D03*
X175260000Y-87630000D03*
X175260000Y-90170000D03*
X175260000Y-92710000D03*
X175260000Y-95250000D03*
X175260000Y-97790000D03*
X175260000Y-100330000D03*
X175260000Y-102870000D03*
X175260000Y-105410000D03*
X182880000Y-105410000D03*
X182880000Y-102870000D03*
X182880000Y-100330000D03*
X182880000Y-97790000D03*
X182880000Y-95250000D03*
X182880000Y-92710000D03*
X182880000Y-90170000D03*
X182880000Y-87630000D03*
X182880000Y-85090000D03*
X182880000Y-82550000D03*
D10*
X175260000Y-49530000D03*
D11*
X175260000Y-52070000D03*
X175260000Y-54610000D03*
X175260000Y-57150000D03*
X175260000Y-59690000D03*
X175260000Y-62230000D03*
X175260000Y-64770000D03*
X175260000Y-67310000D03*
X175260000Y-69850000D03*
X175260000Y-72390000D03*
X182880000Y-72390000D03*
X182880000Y-69850000D03*
X182880000Y-67310000D03*
X182880000Y-64770000D03*
X182880000Y-62230000D03*
X182880000Y-59690000D03*
X182880000Y-57150000D03*
X182880000Y-54610000D03*
X182880000Y-52070000D03*
X182880000Y-49530000D03*
D10*
X85090000Y-63500000D03*
D11*
X85090000Y-66040000D03*
X92710000Y-66040000D03*
X92710000Y-63500000D03*
D10*
X85090000Y-69850000D03*
D11*
X85090000Y-72390000D03*
X92710000Y-72390000D03*
X92710000Y-69850000D03*
D10*
X85090000Y-88900000D03*
D11*
X85090000Y-91440000D03*
X92710000Y-91440000D03*
X92710000Y-88900000D03*
D10*
X85090000Y-95250000D03*
D11*
X85090000Y-97790000D03*
X92710000Y-97790000D03*
X92710000Y-95250000D03*
D10*
X85090000Y-82550000D03*
D11*
X85090000Y-85090000D03*
X92710000Y-85090000D03*
X92710000Y-82550000D03*
D10*
X85090000Y-76200000D03*
D11*
X85090000Y-78740000D03*
X92710000Y-78740000D03*
X92710000Y-76200000D03*
D12*
X187960000Y-77470000D03*
D11*
X187960000Y-84970000D03*
D12*
X189230000Y-44450000D03*
D11*
X189230000Y-51950000D03*
D13*
X180340000Y-40640000D03*
D14*
X177800000Y-40640000D03*
D15*
X71882000Y-48260000D03*
D16*
X79502000Y-48260000D03*
D15*
X71882000Y-60960000D03*
D16*
X79502000Y-60960000D03*
D15*
X71882000Y-99060000D03*
D16*
X79502000Y-99060000D03*
D15*
X71882000Y-111760000D03*
D16*
X79502000Y-111760000D03*
D15*
X71882000Y-86360000D03*
D16*
X79502000Y-86360000D03*
D15*
X71882000Y-73660000D03*
D16*
X79502000Y-73660000D03*
D15*
X105664000Y-74930000D03*
D16*
X105664000Y-67310000D03*
D15*
X101854000Y-74930000D03*
D16*
X101854000Y-67310000D03*
D15*
X101854000Y-86360000D03*
D16*
X101854000Y-93980000D03*
D15*
X105664000Y-86360000D03*
D16*
X105664000Y-93980000D03*
D15*
X98044000Y-86360000D03*
D16*
X98044000Y-93980000D03*
D15*
X98044000Y-74930000D03*
D16*
X98044000Y-67310000D03*
D15*
X194310000Y-40640000D03*
D16*
X194310000Y-48260000D03*
D17*
X160870000Y-103210000D03*
X160870000Y-56260000D03*
X136360000Y-103210000D03*
X136360000Y-56260000D03*
D18*
X161290000Y-95250000D03*
D19*
X161290000Y-92710000D03*
X161290000Y-90170000D03*
X161290000Y-87630000D03*
X161290000Y-85090000D03*
X161290000Y-82550000D03*
X161290000Y-80010000D03*
X161290000Y-77470000D03*
X161290000Y-74930000D03*
X161290000Y-72390000D03*
X161290000Y-69850000D03*
X161290000Y-67310000D03*
X161290000Y-64770000D03*
X161290000Y-62230000D03*
X161290000Y-59690000D03*
X135890000Y-59690000D03*
X135890000Y-62230000D03*
X135890000Y-64770000D03*
X135890000Y-67310000D03*
X135890000Y-69850000D03*
X135890000Y-72390000D03*
X135890000Y-74930000D03*
X135890000Y-77470000D03*
X135890000Y-80010000D03*
X135890000Y-82550000D03*
X135890000Y-85090000D03*
X135890000Y-87630000D03*
X135890000Y-90170000D03*
X135890000Y-92710000D03*
X135890000Y-95250000D03*
D20*
X61722000Y-53340000D03*
D21*
X61722000Y-48260000D03*
D20*
X61722000Y-66040000D03*
D21*
X61722000Y-60960000D03*
D20*
X61722000Y-104140000D03*
D21*
X61722000Y-99060000D03*
D20*
X61722000Y-116840000D03*
D21*
X61722000Y-111760000D03*
D20*
X61722000Y-91440000D03*
D21*
X61722000Y-86360000D03*
D20*
X61722000Y-78740000D03*
D21*
X61722000Y-73660000D03*
D20*
X205740000Y-73660000D03*
D21*
X205740000Y-78740000D03*
D20*
X205740000Y-86360000D03*
D21*
X205740000Y-91440000D03*
D20*
X205740000Y-99060000D03*
D21*
X205740000Y-104140000D03*
D20*
X205740000Y-111760000D03*
D21*
X205740000Y-116840000D03*
D20*
X205740000Y-48260000D03*
D21*
X205740000Y-53340000D03*
D20*
X205740000Y-60960000D03*
D21*
X205740000Y-66040000D03*
D12*
X193040000Y-68580000D03*
D11*
X193040000Y-76200000D03*
D12*
X108712000Y-88392000D03*
D11*
X108712000Y-73152000D03*
D20*
X113030000Y-41910000D03*
D21*
X118110000Y-41910000D03*
D20*
X100330000Y-41910000D03*
D21*
X105410000Y-41910000D03*
D20*
X125730000Y-41910000D03*
D21*
X130810000Y-41910000D03*
D20*
X138430000Y-41910000D03*
D21*
X143510000Y-41910000D03*
D12*
X116646000Y-90170000D03*
D11*
X124146000Y-90170000D03*
M02*
