%TF.GenerationSoftware,KiCad,Pcbnew,7.0.1-3b83917a11~171~ubuntu20.04.1*%
%TF.CreationDate,2023-03-14T09:38:24+01:00*%
%TF.ProjectId,FluidNC-BOB v1.1,466c7569-644e-4432-9d42-4f422076312e,rev?*%
%TF.SameCoordinates,Original*%
%TF.FileFunction,Drillmap*%
%TF.FilePolarity,Positive*%
%FSLAX45Y45*%
G04 Gerber Fmt 4.5, Leading zero omitted, Abs format (unit mm)*
G04 Created by KiCad (PCBNEW 7.0.1-3b83917a11~171~ubuntu20.04.1) date 2023-03-14 09:38:24*
%MOMM*%
%LPD*%
G01*
G04 APERTURE LIST*
%ADD10C,0.050000*%
%ADD11C,0.200000*%
%ADD12C,0.070000*%
%ADD13C,0.080000*%
%ADD14C,0.090000*%
%ADD15C,0.102000*%
%ADD16C,0.140000*%
G04 APERTURE END LIST*
D10*
X5080000Y-13081000D02*
X5080000Y-3429000D01*
X5767605Y-3937000D02*
G75*
G03*
X5767605Y-3937000I-179605J0D01*
G01*
X21844000Y-3429000D02*
X21844000Y-13081000D01*
X21515605Y-12573000D02*
G75*
G03*
X21515605Y-12573000I-179605J0D01*
G01*
X5767605Y-12573000D02*
G75*
G03*
X5767605Y-12573000I-179605J0D01*
G01*
X21515605Y-3937000D02*
G75*
G03*
X21515605Y-3937000I-179605J0D01*
G01*
X5080000Y-3429000D02*
X21844000Y-3429000D01*
X21844000Y-13081000D02*
X5080000Y-13081000D01*
D11*
D12*
X7153200Y-4791000D02*
X7223200Y-4861000D01*
X7223200Y-4791000D02*
X7153200Y-4861000D01*
X7153200Y-6061000D02*
X7223200Y-6131000D01*
X7223200Y-6061000D02*
X7153200Y-6131000D01*
X7153200Y-7331000D02*
X7223200Y-7401000D01*
X7223200Y-7331000D02*
X7153200Y-7401000D01*
X7153200Y-8601000D02*
X7223200Y-8671000D01*
X7223200Y-8601000D02*
X7153200Y-8671000D01*
X7153200Y-9871000D02*
X7223200Y-9941000D01*
X7223200Y-9871000D02*
X7153200Y-9941000D01*
X7153200Y-11141000D02*
X7223200Y-11211000D01*
X7223200Y-11141000D02*
X7153200Y-11211000D01*
X7915200Y-4791000D02*
X7985200Y-4861000D01*
X7985200Y-4791000D02*
X7915200Y-4861000D01*
X7915200Y-6061000D02*
X7985200Y-6131000D01*
X7985200Y-6061000D02*
X7915200Y-6131000D01*
X7915200Y-7331000D02*
X7985200Y-7401000D01*
X7985200Y-7331000D02*
X7915200Y-7401000D01*
X7915200Y-8601000D02*
X7985200Y-8671000D01*
X7985200Y-8601000D02*
X7915200Y-8671000D01*
X7915200Y-9871000D02*
X7985200Y-9941000D01*
X7985200Y-9871000D02*
X7915200Y-9941000D01*
X7915200Y-11141000D02*
X7985200Y-11211000D01*
X7985200Y-11141000D02*
X7915200Y-11211000D01*
X9769400Y-6696000D02*
X9839400Y-6766000D01*
X9839400Y-6696000D02*
X9769400Y-6766000D01*
X9769400Y-7458000D02*
X9839400Y-7528000D01*
X9839400Y-7458000D02*
X9769400Y-7528000D01*
X9769400Y-8601000D02*
X9839400Y-8671000D01*
X9839400Y-8601000D02*
X9769400Y-8671000D01*
X9769400Y-9363000D02*
X9839400Y-9433000D01*
X9839400Y-9363000D02*
X9769400Y-9433000D01*
X10150400Y-6696000D02*
X10220400Y-6766000D01*
X10220400Y-6696000D02*
X10150400Y-6766000D01*
X10150400Y-7458000D02*
X10220400Y-7528000D01*
X10220400Y-7458000D02*
X10150400Y-7528000D01*
X10150400Y-8601000D02*
X10220400Y-8671000D01*
X10220400Y-8601000D02*
X10150400Y-8671000D01*
X10150400Y-9363000D02*
X10220400Y-9433000D01*
X10220400Y-9363000D02*
X10150400Y-9433000D01*
X10531400Y-6696000D02*
X10601400Y-6766000D01*
X10601400Y-6696000D02*
X10531400Y-6766000D01*
X10531400Y-7458000D02*
X10601400Y-7528000D01*
X10601400Y-7458000D02*
X10531400Y-7528000D01*
X10531400Y-8601000D02*
X10601400Y-8671000D01*
X10601400Y-8601000D02*
X10531400Y-8671000D01*
X10531400Y-9363000D02*
X10601400Y-9433000D01*
X10601400Y-9363000D02*
X10531400Y-9433000D01*
X19396000Y-4029000D02*
X19466000Y-4099000D01*
X19466000Y-4029000D02*
X19396000Y-4099000D01*
X19396000Y-4791000D02*
X19466000Y-4861000D01*
X19466000Y-4791000D02*
X19396000Y-4861000D01*
D13*
X8549000Y-6350000D02*
G75*
G03*
X8549000Y-6350000I-40000J0D01*
G01*
X8549000Y-6604000D02*
G75*
G03*
X8549000Y-6604000I-40000J0D01*
G01*
X8549000Y-6985000D02*
G75*
G03*
X8549000Y-6985000I-40000J0D01*
G01*
X8549000Y-7239000D02*
G75*
G03*
X8549000Y-7239000I-40000J0D01*
G01*
X8549000Y-7620000D02*
G75*
G03*
X8549000Y-7620000I-40000J0D01*
G01*
X8549000Y-7874000D02*
G75*
G03*
X8549000Y-7874000I-40000J0D01*
G01*
X8549000Y-8255000D02*
G75*
G03*
X8549000Y-8255000I-40000J0D01*
G01*
X8549000Y-8509000D02*
G75*
G03*
X8549000Y-8509000I-40000J0D01*
G01*
X8549000Y-8890000D02*
G75*
G03*
X8549000Y-8890000I-40000J0D01*
G01*
X8549000Y-9144000D02*
G75*
G03*
X8549000Y-9144000I-40000J0D01*
G01*
X8549000Y-9525000D02*
G75*
G03*
X8549000Y-9525000I-40000J0D01*
G01*
X8549000Y-9779000D02*
G75*
G03*
X8549000Y-9779000I-40000J0D01*
G01*
X9311000Y-6350000D02*
G75*
G03*
X9311000Y-6350000I-40000J0D01*
G01*
X9311000Y-6604000D02*
G75*
G03*
X9311000Y-6604000I-40000J0D01*
G01*
X9311000Y-6985000D02*
G75*
G03*
X9311000Y-6985000I-40000J0D01*
G01*
X9311000Y-7239000D02*
G75*
G03*
X9311000Y-7239000I-40000J0D01*
G01*
X9311000Y-7620000D02*
G75*
G03*
X9311000Y-7620000I-40000J0D01*
G01*
X9311000Y-7874000D02*
G75*
G03*
X9311000Y-7874000I-40000J0D01*
G01*
X9311000Y-8255000D02*
G75*
G03*
X9311000Y-8255000I-40000J0D01*
G01*
X9311000Y-8509000D02*
G75*
G03*
X9311000Y-8509000I-40000J0D01*
G01*
X9311000Y-8890000D02*
G75*
G03*
X9311000Y-8890000I-40000J0D01*
G01*
X9311000Y-9144000D02*
G75*
G03*
X9311000Y-9144000I-40000J0D01*
G01*
X9311000Y-9525000D02*
G75*
G03*
X9311000Y-9525000I-40000J0D01*
G01*
X9311000Y-9779000D02*
G75*
G03*
X9311000Y-9779000I-40000J0D01*
G01*
X10911200Y-7315200D02*
G75*
G03*
X10911200Y-7315200I-40000J0D01*
G01*
X10911200Y-8839200D02*
G75*
G03*
X10911200Y-8839200I-40000J0D01*
G01*
X11367900Y-7314200D02*
G75*
G03*
X11367900Y-7314200I-40000J0D01*
G01*
X11367900Y-8076200D02*
G75*
G03*
X11367900Y-8076200I-40000J0D01*
G01*
X11621900Y-7314200D02*
G75*
G03*
X11621900Y-7314200I-40000J0D01*
G01*
X11621900Y-8076200D02*
G75*
G03*
X11621900Y-8076200I-40000J0D01*
G01*
X11704600Y-9017000D02*
G75*
G03*
X11704600Y-9017000I-40000J0D01*
G01*
X11875900Y-7314200D02*
G75*
G03*
X11875900Y-7314200I-40000J0D01*
G01*
X11875900Y-8076200D02*
G75*
G03*
X11875900Y-8076200I-40000J0D01*
G01*
X12129900Y-7314200D02*
G75*
G03*
X12129900Y-7314200I-40000J0D01*
G01*
X12129900Y-8076200D02*
G75*
G03*
X12129900Y-8076200I-40000J0D01*
G01*
X12383900Y-7314200D02*
G75*
G03*
X12383900Y-7314200I-40000J0D01*
G01*
X12383900Y-8076200D02*
G75*
G03*
X12383900Y-8076200I-40000J0D01*
G01*
X12454600Y-9017000D02*
G75*
G03*
X12454600Y-9017000I-40000J0D01*
G01*
X12637900Y-7314200D02*
G75*
G03*
X12637900Y-7314200I-40000J0D01*
G01*
X12637900Y-8076200D02*
G75*
G03*
X12637900Y-8076200I-40000J0D01*
G01*
X12891900Y-7314200D02*
G75*
G03*
X12891900Y-7314200I-40000J0D01*
G01*
X12891900Y-8076200D02*
G75*
G03*
X12891900Y-8076200I-40000J0D01*
G01*
X17566000Y-4953000D02*
G75*
G03*
X17566000Y-4953000I-40000J0D01*
G01*
X17566000Y-5207000D02*
G75*
G03*
X17566000Y-5207000I-40000J0D01*
G01*
X17566000Y-5461000D02*
G75*
G03*
X17566000Y-5461000I-40000J0D01*
G01*
X17566000Y-5715000D02*
G75*
G03*
X17566000Y-5715000I-40000J0D01*
G01*
X17566000Y-5969000D02*
G75*
G03*
X17566000Y-5969000I-40000J0D01*
G01*
X17566000Y-6223000D02*
G75*
G03*
X17566000Y-6223000I-40000J0D01*
G01*
X17566000Y-6477000D02*
G75*
G03*
X17566000Y-6477000I-40000J0D01*
G01*
X17566000Y-6731000D02*
G75*
G03*
X17566000Y-6731000I-40000J0D01*
G01*
X17566000Y-6985000D02*
G75*
G03*
X17566000Y-6985000I-40000J0D01*
G01*
X17566000Y-7239000D02*
G75*
G03*
X17566000Y-7239000I-40000J0D01*
G01*
X17566000Y-8255000D02*
G75*
G03*
X17566000Y-8255000I-40000J0D01*
G01*
X17566000Y-8509000D02*
G75*
G03*
X17566000Y-8509000I-40000J0D01*
G01*
X17566000Y-8763000D02*
G75*
G03*
X17566000Y-8763000I-40000J0D01*
G01*
X17566000Y-9017000D02*
G75*
G03*
X17566000Y-9017000I-40000J0D01*
G01*
X17566000Y-9271000D02*
G75*
G03*
X17566000Y-9271000I-40000J0D01*
G01*
X17566000Y-9525000D02*
G75*
G03*
X17566000Y-9525000I-40000J0D01*
G01*
X17566000Y-9779000D02*
G75*
G03*
X17566000Y-9779000I-40000J0D01*
G01*
X17566000Y-10033000D02*
G75*
G03*
X17566000Y-10033000I-40000J0D01*
G01*
X17566000Y-10287000D02*
G75*
G03*
X17566000Y-10287000I-40000J0D01*
G01*
X17566000Y-10541000D02*
G75*
G03*
X17566000Y-10541000I-40000J0D01*
G01*
X18328000Y-4953000D02*
G75*
G03*
X18328000Y-4953000I-40000J0D01*
G01*
X18328000Y-5207000D02*
G75*
G03*
X18328000Y-5207000I-40000J0D01*
G01*
X18328000Y-5461000D02*
G75*
G03*
X18328000Y-5461000I-40000J0D01*
G01*
X18328000Y-5715000D02*
G75*
G03*
X18328000Y-5715000I-40000J0D01*
G01*
X18328000Y-5969000D02*
G75*
G03*
X18328000Y-5969000I-40000J0D01*
G01*
X18328000Y-6223000D02*
G75*
G03*
X18328000Y-6223000I-40000J0D01*
G01*
X18328000Y-6477000D02*
G75*
G03*
X18328000Y-6477000I-40000J0D01*
G01*
X18328000Y-6731000D02*
G75*
G03*
X18328000Y-6731000I-40000J0D01*
G01*
X18328000Y-6985000D02*
G75*
G03*
X18328000Y-6985000I-40000J0D01*
G01*
X18328000Y-7239000D02*
G75*
G03*
X18328000Y-7239000I-40000J0D01*
G01*
X18328000Y-8255000D02*
G75*
G03*
X18328000Y-8255000I-40000J0D01*
G01*
X18328000Y-8509000D02*
G75*
G03*
X18328000Y-8509000I-40000J0D01*
G01*
X18328000Y-8763000D02*
G75*
G03*
X18328000Y-8763000I-40000J0D01*
G01*
X18328000Y-9017000D02*
G75*
G03*
X18328000Y-9017000I-40000J0D01*
G01*
X18328000Y-9271000D02*
G75*
G03*
X18328000Y-9271000I-40000J0D01*
G01*
X18328000Y-9525000D02*
G75*
G03*
X18328000Y-9525000I-40000J0D01*
G01*
X18328000Y-9779000D02*
G75*
G03*
X18328000Y-9779000I-40000J0D01*
G01*
X18328000Y-10033000D02*
G75*
G03*
X18328000Y-10033000I-40000J0D01*
G01*
X18328000Y-10287000D02*
G75*
G03*
X18328000Y-10287000I-40000J0D01*
G01*
X18328000Y-10541000D02*
G75*
G03*
X18328000Y-10541000I-40000J0D01*
G01*
X18836000Y-7747000D02*
G75*
G03*
X18836000Y-7747000I-40000J0D01*
G01*
X18836000Y-8497000D02*
G75*
G03*
X18836000Y-8497000I-40000J0D01*
G01*
X18963000Y-4445000D02*
G75*
G03*
X18963000Y-4445000I-40000J0D01*
G01*
X18963000Y-5195000D02*
G75*
G03*
X18963000Y-5195000I-40000J0D01*
G01*
X19344000Y-6858000D02*
G75*
G03*
X19344000Y-6858000I-40000J0D01*
G01*
X19344000Y-7620000D02*
G75*
G03*
X19344000Y-7620000I-40000J0D01*
G01*
D14*
X17780000Y-4019000D02*
X17780000Y-4109000D01*
X17735000Y-4064000D02*
X17825000Y-4064000D01*
X18034000Y-4019000D02*
X18034000Y-4109000D01*
X17989000Y-4064000D02*
X18079000Y-4064000D01*
D15*
X13625063Y-6005063D02*
X13625063Y-5932937D01*
X13552937Y-5932937D01*
X13552937Y-6005063D01*
X13625063Y-6005063D01*
X13625063Y-6259063D02*
X13625063Y-6186937D01*
X13552937Y-6186937D01*
X13552937Y-6259063D01*
X13625063Y-6259063D01*
X13625063Y-6513063D02*
X13625063Y-6440937D01*
X13552937Y-6440937D01*
X13552937Y-6513063D01*
X13625063Y-6513063D01*
X13625063Y-6767063D02*
X13625063Y-6694937D01*
X13552937Y-6694937D01*
X13552937Y-6767063D01*
X13625063Y-6767063D01*
X13625063Y-7021063D02*
X13625063Y-6948937D01*
X13552937Y-6948937D01*
X13552937Y-7021063D01*
X13625063Y-7021063D01*
X13625063Y-7275063D02*
X13625063Y-7202937D01*
X13552937Y-7202937D01*
X13552937Y-7275063D01*
X13625063Y-7275063D01*
X13625063Y-7529063D02*
X13625063Y-7456937D01*
X13552937Y-7456937D01*
X13552937Y-7529063D01*
X13625063Y-7529063D01*
X13625063Y-7783063D02*
X13625063Y-7710937D01*
X13552937Y-7710937D01*
X13552937Y-7783063D01*
X13625063Y-7783063D01*
X13625063Y-8037063D02*
X13625063Y-7964937D01*
X13552937Y-7964937D01*
X13552937Y-8037063D01*
X13625063Y-8037063D01*
X13625063Y-8291063D02*
X13625063Y-8218937D01*
X13552937Y-8218937D01*
X13552937Y-8291063D01*
X13625063Y-8291063D01*
X13625063Y-8545063D02*
X13625063Y-8472937D01*
X13552937Y-8472937D01*
X13552937Y-8545063D01*
X13625063Y-8545063D01*
X13625063Y-8799063D02*
X13625063Y-8726937D01*
X13552937Y-8726937D01*
X13552937Y-8799063D01*
X13625063Y-8799063D01*
X13625063Y-9053063D02*
X13625063Y-8980937D01*
X13552937Y-8980937D01*
X13552937Y-9053063D01*
X13625063Y-9053063D01*
X13625063Y-9307063D02*
X13625063Y-9234937D01*
X13552937Y-9234937D01*
X13552937Y-9307063D01*
X13625063Y-9307063D01*
X13625063Y-9561063D02*
X13625063Y-9488937D01*
X13552937Y-9488937D01*
X13552937Y-9561063D01*
X13625063Y-9561063D01*
X16165063Y-6005063D02*
X16165063Y-5932937D01*
X16092937Y-5932937D01*
X16092937Y-6005063D01*
X16165063Y-6005063D01*
X16165063Y-6259063D02*
X16165063Y-6186937D01*
X16092937Y-6186937D01*
X16092937Y-6259063D01*
X16165063Y-6259063D01*
X16165063Y-6513063D02*
X16165063Y-6440937D01*
X16092937Y-6440937D01*
X16092937Y-6513063D01*
X16165063Y-6513063D01*
X16165063Y-6767063D02*
X16165063Y-6694937D01*
X16092937Y-6694937D01*
X16092937Y-6767063D01*
X16165063Y-6767063D01*
X16165063Y-7021063D02*
X16165063Y-6948937D01*
X16092937Y-6948937D01*
X16092937Y-7021063D01*
X16165063Y-7021063D01*
X16165063Y-7275063D02*
X16165063Y-7202937D01*
X16092937Y-7202937D01*
X16092937Y-7275063D01*
X16165063Y-7275063D01*
X16165063Y-7529063D02*
X16165063Y-7456937D01*
X16092937Y-7456937D01*
X16092937Y-7529063D01*
X16165063Y-7529063D01*
X16165063Y-7783063D02*
X16165063Y-7710937D01*
X16092937Y-7710937D01*
X16092937Y-7783063D01*
X16165063Y-7783063D01*
X16165063Y-8037063D02*
X16165063Y-7964937D01*
X16092937Y-7964937D01*
X16092937Y-8037063D01*
X16165063Y-8037063D01*
X16165063Y-8291063D02*
X16165063Y-8218937D01*
X16092937Y-8218937D01*
X16092937Y-8291063D01*
X16165063Y-8291063D01*
X16165063Y-8545063D02*
X16165063Y-8472937D01*
X16092937Y-8472937D01*
X16092937Y-8545063D01*
X16165063Y-8545063D01*
X16165063Y-8799063D02*
X16165063Y-8726937D01*
X16092937Y-8726937D01*
X16092937Y-8799063D01*
X16165063Y-8799063D01*
X16165063Y-9053063D02*
X16165063Y-8980937D01*
X16092937Y-8980937D01*
X16092937Y-9053063D01*
X16165063Y-9053063D01*
X16165063Y-9307063D02*
X16165063Y-9234937D01*
X16092937Y-9234937D01*
X16092937Y-9307063D01*
X16165063Y-9307063D01*
X16165063Y-9561063D02*
X16165063Y-9488937D01*
X16092937Y-9488937D01*
X16092937Y-9561063D01*
X16165063Y-9561063D01*
D16*
X6172200Y-4896000D02*
X6242200Y-4826000D01*
X6172200Y-4756000D01*
X6102200Y-4826000D01*
X6172200Y-4896000D01*
X6172200Y-5404000D02*
X6242200Y-5334000D01*
X6172200Y-5264000D01*
X6102200Y-5334000D01*
X6172200Y-5404000D01*
X6172200Y-6166000D02*
X6242200Y-6096000D01*
X6172200Y-6026000D01*
X6102200Y-6096000D01*
X6172200Y-6166000D01*
X6172200Y-6674000D02*
X6242200Y-6604000D01*
X6172200Y-6534000D01*
X6102200Y-6604000D01*
X6172200Y-6674000D01*
X6172200Y-7436000D02*
X6242200Y-7366000D01*
X6172200Y-7296000D01*
X6102200Y-7366000D01*
X6172200Y-7436000D01*
X6172200Y-7944000D02*
X6242200Y-7874000D01*
X6172200Y-7804000D01*
X6102200Y-7874000D01*
X6172200Y-7944000D01*
X6172200Y-8706000D02*
X6242200Y-8636000D01*
X6172200Y-8566000D01*
X6102200Y-8636000D01*
X6172200Y-8706000D01*
X6172200Y-9214000D02*
X6242200Y-9144000D01*
X6172200Y-9074000D01*
X6102200Y-9144000D01*
X6172200Y-9214000D01*
X6172200Y-9976000D02*
X6242200Y-9906000D01*
X6172200Y-9836000D01*
X6102200Y-9906000D01*
X6172200Y-9976000D01*
X6172200Y-10484000D02*
X6242200Y-10414000D01*
X6172200Y-10344000D01*
X6102200Y-10414000D01*
X6172200Y-10484000D01*
X6172200Y-11246000D02*
X6242200Y-11176000D01*
X6172200Y-11106000D01*
X6102200Y-11176000D01*
X6172200Y-11246000D01*
X6172200Y-11754000D02*
X6242200Y-11684000D01*
X6172200Y-11614000D01*
X6102200Y-11684000D01*
X6172200Y-11754000D01*
X10033000Y-4261000D02*
X10103000Y-4191000D01*
X10033000Y-4121000D01*
X9963000Y-4191000D01*
X10033000Y-4261000D01*
X10541000Y-4261000D02*
X10611000Y-4191000D01*
X10541000Y-4121000D01*
X10471000Y-4191000D01*
X10541000Y-4261000D01*
X11303000Y-4261000D02*
X11373000Y-4191000D01*
X11303000Y-4121000D01*
X11233000Y-4191000D01*
X11303000Y-4261000D01*
X11811000Y-4261000D02*
X11881000Y-4191000D01*
X11811000Y-4121000D01*
X11741000Y-4191000D01*
X11811000Y-4261000D01*
X12573000Y-4261000D02*
X12643000Y-4191000D01*
X12573000Y-4121000D01*
X12503000Y-4191000D01*
X12573000Y-4261000D01*
X13081000Y-4261000D02*
X13151000Y-4191000D01*
X13081000Y-4121000D01*
X13011000Y-4191000D01*
X13081000Y-4261000D01*
X13843000Y-4261000D02*
X13913000Y-4191000D01*
X13843000Y-4121000D01*
X13773000Y-4191000D01*
X13843000Y-4261000D01*
X14351000Y-4261000D02*
X14421000Y-4191000D01*
X14351000Y-4121000D01*
X14281000Y-4191000D01*
X14351000Y-4261000D01*
X20574000Y-4896000D02*
X20644000Y-4826000D01*
X20574000Y-4756000D01*
X20504000Y-4826000D01*
X20574000Y-4896000D01*
X20574000Y-5404000D02*
X20644000Y-5334000D01*
X20574000Y-5264000D01*
X20504000Y-5334000D01*
X20574000Y-5404000D01*
X20574000Y-6166000D02*
X20644000Y-6096000D01*
X20574000Y-6026000D01*
X20504000Y-6096000D01*
X20574000Y-6166000D01*
X20574000Y-6674000D02*
X20644000Y-6604000D01*
X20574000Y-6534000D01*
X20504000Y-6604000D01*
X20574000Y-6674000D01*
X20574000Y-7436000D02*
X20644000Y-7366000D01*
X20574000Y-7296000D01*
X20504000Y-7366000D01*
X20574000Y-7436000D01*
X20574000Y-7944000D02*
X20644000Y-7874000D01*
X20574000Y-7804000D01*
X20504000Y-7874000D01*
X20574000Y-7944000D01*
X20574000Y-8706000D02*
X20644000Y-8636000D01*
X20574000Y-8566000D01*
X20504000Y-8636000D01*
X20574000Y-8706000D01*
X20574000Y-9214000D02*
X20644000Y-9144000D01*
X20574000Y-9074000D01*
X20504000Y-9144000D01*
X20574000Y-9214000D01*
X20574000Y-9976000D02*
X20644000Y-9906000D01*
X20574000Y-9836000D01*
X20504000Y-9906000D01*
X20574000Y-9976000D01*
X20574000Y-10484000D02*
X20644000Y-10414000D01*
X20574000Y-10344000D01*
X20504000Y-10414000D01*
X20574000Y-10484000D01*
X20574000Y-11246000D02*
X20644000Y-11176000D01*
X20574000Y-11106000D01*
X20504000Y-11176000D01*
X20574000Y-11246000D01*
X20574000Y-11754000D02*
X20644000Y-11684000D01*
X20574000Y-11614000D01*
X20504000Y-11684000D01*
X20574000Y-11754000D01*
D11*
X5325119Y-13396024D02*
X5325119Y-13196024D01*
X5325119Y-13196024D02*
X5372738Y-13196024D01*
X5372738Y-13196024D02*
X5401310Y-13205548D01*
X5401310Y-13205548D02*
X5420357Y-13224595D01*
X5420357Y-13224595D02*
X5429881Y-13243643D01*
X5429881Y-13243643D02*
X5439405Y-13281738D01*
X5439405Y-13281738D02*
X5439405Y-13310309D01*
X5439405Y-13310309D02*
X5429881Y-13348405D01*
X5429881Y-13348405D02*
X5420357Y-13367452D01*
X5420357Y-13367452D02*
X5401310Y-13386500D01*
X5401310Y-13386500D02*
X5372738Y-13396024D01*
X5372738Y-13396024D02*
X5325119Y-13396024D01*
X5525119Y-13396024D02*
X5525119Y-13262690D01*
X5525119Y-13300786D02*
X5534643Y-13281738D01*
X5534643Y-13281738D02*
X5544167Y-13272214D01*
X5544167Y-13272214D02*
X5563214Y-13262690D01*
X5563214Y-13262690D02*
X5582262Y-13262690D01*
X5648928Y-13396024D02*
X5648928Y-13262690D01*
X5648928Y-13196024D02*
X5639405Y-13205548D01*
X5639405Y-13205548D02*
X5648928Y-13215071D01*
X5648928Y-13215071D02*
X5658452Y-13205548D01*
X5658452Y-13205548D02*
X5648928Y-13196024D01*
X5648928Y-13196024D02*
X5648928Y-13215071D01*
X5772738Y-13396024D02*
X5753690Y-13386500D01*
X5753690Y-13386500D02*
X5744167Y-13367452D01*
X5744167Y-13367452D02*
X5744167Y-13196024D01*
X5877500Y-13396024D02*
X5858452Y-13386500D01*
X5858452Y-13386500D02*
X5848928Y-13367452D01*
X5848928Y-13367452D02*
X5848928Y-13196024D01*
X6106071Y-13396024D02*
X6106071Y-13196024D01*
X6106071Y-13196024D02*
X6172738Y-13338881D01*
X6172738Y-13338881D02*
X6239405Y-13196024D01*
X6239405Y-13196024D02*
X6239405Y-13396024D01*
X6420357Y-13396024D02*
X6420357Y-13291262D01*
X6420357Y-13291262D02*
X6410833Y-13272214D01*
X6410833Y-13272214D02*
X6391786Y-13262690D01*
X6391786Y-13262690D02*
X6353690Y-13262690D01*
X6353690Y-13262690D02*
X6334643Y-13272214D01*
X6420357Y-13386500D02*
X6401309Y-13396024D01*
X6401309Y-13396024D02*
X6353690Y-13396024D01*
X6353690Y-13396024D02*
X6334643Y-13386500D01*
X6334643Y-13386500D02*
X6325119Y-13367452D01*
X6325119Y-13367452D02*
X6325119Y-13348405D01*
X6325119Y-13348405D02*
X6334643Y-13329357D01*
X6334643Y-13329357D02*
X6353690Y-13319833D01*
X6353690Y-13319833D02*
X6401309Y-13319833D01*
X6401309Y-13319833D02*
X6420357Y-13310309D01*
X6515595Y-13262690D02*
X6515595Y-13462690D01*
X6515595Y-13272214D02*
X6534643Y-13262690D01*
X6534643Y-13262690D02*
X6572738Y-13262690D01*
X6572738Y-13262690D02*
X6591786Y-13272214D01*
X6591786Y-13272214D02*
X6601309Y-13281738D01*
X6601309Y-13281738D02*
X6610833Y-13300786D01*
X6610833Y-13300786D02*
X6610833Y-13357928D01*
X6610833Y-13357928D02*
X6601309Y-13376976D01*
X6601309Y-13376976D02*
X6591786Y-13386500D01*
X6591786Y-13386500D02*
X6572738Y-13396024D01*
X6572738Y-13396024D02*
X6534643Y-13396024D01*
X6534643Y-13396024D02*
X6515595Y-13386500D01*
X6696548Y-13376976D02*
X6706071Y-13386500D01*
X6706071Y-13386500D02*
X6696548Y-13396024D01*
X6696548Y-13396024D02*
X6687024Y-13386500D01*
X6687024Y-13386500D02*
X6696548Y-13376976D01*
X6696548Y-13376976D02*
X6696548Y-13396024D01*
X6696548Y-13272214D02*
X6706071Y-13281738D01*
X6706071Y-13281738D02*
X6696548Y-13291262D01*
X6696548Y-13291262D02*
X6687024Y-13281738D01*
X6687024Y-13281738D02*
X6696548Y-13272214D01*
X6696548Y-13272214D02*
X6696548Y-13291262D01*
D12*
X5007500Y-13688500D02*
X5077500Y-13758500D01*
X5077500Y-13688500D02*
X5007500Y-13758500D01*
D11*
X5363214Y-13616024D02*
X5382262Y-13616024D01*
X5382262Y-13616024D02*
X5401310Y-13625548D01*
X5401310Y-13625548D02*
X5410833Y-13635071D01*
X5410833Y-13635071D02*
X5420357Y-13654119D01*
X5420357Y-13654119D02*
X5429881Y-13692214D01*
X5429881Y-13692214D02*
X5429881Y-13739833D01*
X5429881Y-13739833D02*
X5420357Y-13777928D01*
X5420357Y-13777928D02*
X5410833Y-13796976D01*
X5410833Y-13796976D02*
X5401310Y-13806500D01*
X5401310Y-13806500D02*
X5382262Y-13816024D01*
X5382262Y-13816024D02*
X5363214Y-13816024D01*
X5363214Y-13816024D02*
X5344167Y-13806500D01*
X5344167Y-13806500D02*
X5334643Y-13796976D01*
X5334643Y-13796976D02*
X5325119Y-13777928D01*
X5325119Y-13777928D02*
X5315595Y-13739833D01*
X5315595Y-13739833D02*
X5315595Y-13692214D01*
X5315595Y-13692214D02*
X5325119Y-13654119D01*
X5325119Y-13654119D02*
X5334643Y-13635071D01*
X5334643Y-13635071D02*
X5344167Y-13625548D01*
X5344167Y-13625548D02*
X5363214Y-13616024D01*
X5515595Y-13796976D02*
X5525119Y-13806500D01*
X5525119Y-13806500D02*
X5515595Y-13816024D01*
X5515595Y-13816024D02*
X5506071Y-13806500D01*
X5506071Y-13806500D02*
X5515595Y-13796976D01*
X5515595Y-13796976D02*
X5515595Y-13816024D01*
X5591786Y-13616024D02*
X5725119Y-13616024D01*
X5725119Y-13616024D02*
X5639405Y-13816024D01*
X5839405Y-13616024D02*
X5858452Y-13616024D01*
X5858452Y-13616024D02*
X5877500Y-13625548D01*
X5877500Y-13625548D02*
X5887024Y-13635071D01*
X5887024Y-13635071D02*
X5896548Y-13654119D01*
X5896548Y-13654119D02*
X5906071Y-13692214D01*
X5906071Y-13692214D02*
X5906071Y-13739833D01*
X5906071Y-13739833D02*
X5896548Y-13777928D01*
X5896548Y-13777928D02*
X5887024Y-13796976D01*
X5887024Y-13796976D02*
X5877500Y-13806500D01*
X5877500Y-13806500D02*
X5858452Y-13816024D01*
X5858452Y-13816024D02*
X5839405Y-13816024D01*
X5839405Y-13816024D02*
X5820357Y-13806500D01*
X5820357Y-13806500D02*
X5810833Y-13796976D01*
X5810833Y-13796976D02*
X5801309Y-13777928D01*
X5801309Y-13777928D02*
X5791786Y-13739833D01*
X5791786Y-13739833D02*
X5791786Y-13692214D01*
X5791786Y-13692214D02*
X5801309Y-13654119D01*
X5801309Y-13654119D02*
X5810833Y-13635071D01*
X5810833Y-13635071D02*
X5820357Y-13625548D01*
X5820357Y-13625548D02*
X5839405Y-13616024D01*
X6029881Y-13616024D02*
X6048929Y-13616024D01*
X6048929Y-13616024D02*
X6067976Y-13625548D01*
X6067976Y-13625548D02*
X6077500Y-13635071D01*
X6077500Y-13635071D02*
X6087024Y-13654119D01*
X6087024Y-13654119D02*
X6096548Y-13692214D01*
X6096548Y-13692214D02*
X6096548Y-13739833D01*
X6096548Y-13739833D02*
X6087024Y-13777928D01*
X6087024Y-13777928D02*
X6077500Y-13796976D01*
X6077500Y-13796976D02*
X6067976Y-13806500D01*
X6067976Y-13806500D02*
X6048929Y-13816024D01*
X6048929Y-13816024D02*
X6029881Y-13816024D01*
X6029881Y-13816024D02*
X6010833Y-13806500D01*
X6010833Y-13806500D02*
X6001309Y-13796976D01*
X6001309Y-13796976D02*
X5991786Y-13777928D01*
X5991786Y-13777928D02*
X5982262Y-13739833D01*
X5982262Y-13739833D02*
X5982262Y-13692214D01*
X5982262Y-13692214D02*
X5991786Y-13654119D01*
X5991786Y-13654119D02*
X6001309Y-13635071D01*
X6001309Y-13635071D02*
X6010833Y-13625548D01*
X6010833Y-13625548D02*
X6029881Y-13616024D01*
X6182262Y-13816024D02*
X6182262Y-13682690D01*
X6182262Y-13701738D02*
X6191786Y-13692214D01*
X6191786Y-13692214D02*
X6210833Y-13682690D01*
X6210833Y-13682690D02*
X6239405Y-13682690D01*
X6239405Y-13682690D02*
X6258452Y-13692214D01*
X6258452Y-13692214D02*
X6267976Y-13711262D01*
X6267976Y-13711262D02*
X6267976Y-13816024D01*
X6267976Y-13711262D02*
X6277500Y-13692214D01*
X6277500Y-13692214D02*
X6296548Y-13682690D01*
X6296548Y-13682690D02*
X6325119Y-13682690D01*
X6325119Y-13682690D02*
X6344167Y-13692214D01*
X6344167Y-13692214D02*
X6353690Y-13711262D01*
X6353690Y-13711262D02*
X6353690Y-13816024D01*
X6448929Y-13816024D02*
X6448929Y-13682690D01*
X6448929Y-13701738D02*
X6458452Y-13692214D01*
X6458452Y-13692214D02*
X6477500Y-13682690D01*
X6477500Y-13682690D02*
X6506071Y-13682690D01*
X6506071Y-13682690D02*
X6525119Y-13692214D01*
X6525119Y-13692214D02*
X6534643Y-13711262D01*
X6534643Y-13711262D02*
X6534643Y-13816024D01*
X6534643Y-13711262D02*
X6544167Y-13692214D01*
X6544167Y-13692214D02*
X6563214Y-13682690D01*
X6563214Y-13682690D02*
X6591786Y-13682690D01*
X6591786Y-13682690D02*
X6610833Y-13692214D01*
X6610833Y-13692214D02*
X6620357Y-13711262D01*
X6620357Y-13711262D02*
X6620357Y-13816024D01*
X7010833Y-13606500D02*
X6839405Y-13863643D01*
X7267976Y-13616024D02*
X7287024Y-13616024D01*
X7287024Y-13616024D02*
X7306072Y-13625548D01*
X7306072Y-13625548D02*
X7315595Y-13635071D01*
X7315595Y-13635071D02*
X7325119Y-13654119D01*
X7325119Y-13654119D02*
X7334643Y-13692214D01*
X7334643Y-13692214D02*
X7334643Y-13739833D01*
X7334643Y-13739833D02*
X7325119Y-13777928D01*
X7325119Y-13777928D02*
X7315595Y-13796976D01*
X7315595Y-13796976D02*
X7306072Y-13806500D01*
X7306072Y-13806500D02*
X7287024Y-13816024D01*
X7287024Y-13816024D02*
X7267976Y-13816024D01*
X7267976Y-13816024D02*
X7248929Y-13806500D01*
X7248929Y-13806500D02*
X7239405Y-13796976D01*
X7239405Y-13796976D02*
X7229881Y-13777928D01*
X7229881Y-13777928D02*
X7220357Y-13739833D01*
X7220357Y-13739833D02*
X7220357Y-13692214D01*
X7220357Y-13692214D02*
X7229881Y-13654119D01*
X7229881Y-13654119D02*
X7239405Y-13635071D01*
X7239405Y-13635071D02*
X7248929Y-13625548D01*
X7248929Y-13625548D02*
X7267976Y-13616024D01*
X7420357Y-13796976D02*
X7429881Y-13806500D01*
X7429881Y-13806500D02*
X7420357Y-13816024D01*
X7420357Y-13816024D02*
X7410833Y-13806500D01*
X7410833Y-13806500D02*
X7420357Y-13796976D01*
X7420357Y-13796976D02*
X7420357Y-13816024D01*
X7553691Y-13616024D02*
X7572738Y-13616024D01*
X7572738Y-13616024D02*
X7591786Y-13625548D01*
X7591786Y-13625548D02*
X7601310Y-13635071D01*
X7601310Y-13635071D02*
X7610833Y-13654119D01*
X7610833Y-13654119D02*
X7620357Y-13692214D01*
X7620357Y-13692214D02*
X7620357Y-13739833D01*
X7620357Y-13739833D02*
X7610833Y-13777928D01*
X7610833Y-13777928D02*
X7601310Y-13796976D01*
X7601310Y-13796976D02*
X7591786Y-13806500D01*
X7591786Y-13806500D02*
X7572738Y-13816024D01*
X7572738Y-13816024D02*
X7553691Y-13816024D01*
X7553691Y-13816024D02*
X7534643Y-13806500D01*
X7534643Y-13806500D02*
X7525119Y-13796976D01*
X7525119Y-13796976D02*
X7515595Y-13777928D01*
X7515595Y-13777928D02*
X7506072Y-13739833D01*
X7506072Y-13739833D02*
X7506072Y-13692214D01*
X7506072Y-13692214D02*
X7515595Y-13654119D01*
X7515595Y-13654119D02*
X7525119Y-13635071D01*
X7525119Y-13635071D02*
X7534643Y-13625548D01*
X7534643Y-13625548D02*
X7553691Y-13616024D01*
X7696548Y-13635071D02*
X7706072Y-13625548D01*
X7706072Y-13625548D02*
X7725119Y-13616024D01*
X7725119Y-13616024D02*
X7772738Y-13616024D01*
X7772738Y-13616024D02*
X7791786Y-13625548D01*
X7791786Y-13625548D02*
X7801310Y-13635071D01*
X7801310Y-13635071D02*
X7810833Y-13654119D01*
X7810833Y-13654119D02*
X7810833Y-13673167D01*
X7810833Y-13673167D02*
X7801310Y-13701738D01*
X7801310Y-13701738D02*
X7687024Y-13816024D01*
X7687024Y-13816024D02*
X7810833Y-13816024D01*
X7877500Y-13616024D02*
X8010833Y-13616024D01*
X8010833Y-13616024D02*
X7925119Y-13816024D01*
X8172738Y-13616024D02*
X8134643Y-13616024D01*
X8134643Y-13616024D02*
X8115595Y-13625548D01*
X8115595Y-13625548D02*
X8106072Y-13635071D01*
X8106072Y-13635071D02*
X8087024Y-13663643D01*
X8087024Y-13663643D02*
X8077500Y-13701738D01*
X8077500Y-13701738D02*
X8077500Y-13777928D01*
X8077500Y-13777928D02*
X8087024Y-13796976D01*
X8087024Y-13796976D02*
X8096548Y-13806500D01*
X8096548Y-13806500D02*
X8115595Y-13816024D01*
X8115595Y-13816024D02*
X8153691Y-13816024D01*
X8153691Y-13816024D02*
X8172738Y-13806500D01*
X8172738Y-13806500D02*
X8182262Y-13796976D01*
X8182262Y-13796976D02*
X8191786Y-13777928D01*
X8191786Y-13777928D02*
X8191786Y-13730309D01*
X8191786Y-13730309D02*
X8182262Y-13711262D01*
X8182262Y-13711262D02*
X8172738Y-13701738D01*
X8172738Y-13701738D02*
X8153691Y-13692214D01*
X8153691Y-13692214D02*
X8115595Y-13692214D01*
X8115595Y-13692214D02*
X8096548Y-13701738D01*
X8096548Y-13701738D02*
X8087024Y-13711262D01*
X8087024Y-13711262D02*
X8077500Y-13730309D01*
X8267976Y-13616024D02*
X8267976Y-13654119D01*
X8344167Y-13616024D02*
X8344167Y-13654119D01*
X8639405Y-13892214D02*
X8629881Y-13882690D01*
X8629881Y-13882690D02*
X8610834Y-13854119D01*
X8610834Y-13854119D02*
X8601310Y-13835071D01*
X8601310Y-13835071D02*
X8591786Y-13806500D01*
X8591786Y-13806500D02*
X8582262Y-13758881D01*
X8582262Y-13758881D02*
X8582262Y-13720786D01*
X8582262Y-13720786D02*
X8591786Y-13673167D01*
X8591786Y-13673167D02*
X8601310Y-13644595D01*
X8601310Y-13644595D02*
X8610834Y-13625548D01*
X8610834Y-13625548D02*
X8629881Y-13596976D01*
X8629881Y-13596976D02*
X8639405Y-13587452D01*
X8706072Y-13635071D02*
X8715596Y-13625548D01*
X8715596Y-13625548D02*
X8734643Y-13616024D01*
X8734643Y-13616024D02*
X8782262Y-13616024D01*
X8782262Y-13616024D02*
X8801310Y-13625548D01*
X8801310Y-13625548D02*
X8810834Y-13635071D01*
X8810834Y-13635071D02*
X8820357Y-13654119D01*
X8820357Y-13654119D02*
X8820357Y-13673167D01*
X8820357Y-13673167D02*
X8810834Y-13701738D01*
X8810834Y-13701738D02*
X8696548Y-13816024D01*
X8696548Y-13816024D02*
X8820357Y-13816024D01*
X8991786Y-13616024D02*
X8953691Y-13616024D01*
X8953691Y-13616024D02*
X8934643Y-13625548D01*
X8934643Y-13625548D02*
X8925119Y-13635071D01*
X8925119Y-13635071D02*
X8906072Y-13663643D01*
X8906072Y-13663643D02*
X8896548Y-13701738D01*
X8896548Y-13701738D02*
X8896548Y-13777928D01*
X8896548Y-13777928D02*
X8906072Y-13796976D01*
X8906072Y-13796976D02*
X8915596Y-13806500D01*
X8915596Y-13806500D02*
X8934643Y-13816024D01*
X8934643Y-13816024D02*
X8972738Y-13816024D01*
X8972738Y-13816024D02*
X8991786Y-13806500D01*
X8991786Y-13806500D02*
X9001310Y-13796976D01*
X9001310Y-13796976D02*
X9010834Y-13777928D01*
X9010834Y-13777928D02*
X9010834Y-13730309D01*
X9010834Y-13730309D02*
X9001310Y-13711262D01*
X9001310Y-13711262D02*
X8991786Y-13701738D01*
X8991786Y-13701738D02*
X8972738Y-13692214D01*
X8972738Y-13692214D02*
X8934643Y-13692214D01*
X8934643Y-13692214D02*
X8915596Y-13701738D01*
X8915596Y-13701738D02*
X8906072Y-13711262D01*
X8906072Y-13711262D02*
X8896548Y-13730309D01*
X9248929Y-13816024D02*
X9248929Y-13616024D01*
X9334643Y-13816024D02*
X9334643Y-13711262D01*
X9334643Y-13711262D02*
X9325119Y-13692214D01*
X9325119Y-13692214D02*
X9306072Y-13682690D01*
X9306072Y-13682690D02*
X9277500Y-13682690D01*
X9277500Y-13682690D02*
X9258453Y-13692214D01*
X9258453Y-13692214D02*
X9248929Y-13701738D01*
X9458453Y-13816024D02*
X9439405Y-13806500D01*
X9439405Y-13806500D02*
X9429881Y-13796976D01*
X9429881Y-13796976D02*
X9420358Y-13777928D01*
X9420358Y-13777928D02*
X9420358Y-13720786D01*
X9420358Y-13720786D02*
X9429881Y-13701738D01*
X9429881Y-13701738D02*
X9439405Y-13692214D01*
X9439405Y-13692214D02*
X9458453Y-13682690D01*
X9458453Y-13682690D02*
X9487024Y-13682690D01*
X9487024Y-13682690D02*
X9506072Y-13692214D01*
X9506072Y-13692214D02*
X9515596Y-13701738D01*
X9515596Y-13701738D02*
X9525119Y-13720786D01*
X9525119Y-13720786D02*
X9525119Y-13777928D01*
X9525119Y-13777928D02*
X9515596Y-13796976D01*
X9515596Y-13796976D02*
X9506072Y-13806500D01*
X9506072Y-13806500D02*
X9487024Y-13816024D01*
X9487024Y-13816024D02*
X9458453Y-13816024D01*
X9639405Y-13816024D02*
X9620358Y-13806500D01*
X9620358Y-13806500D02*
X9610834Y-13787452D01*
X9610834Y-13787452D02*
X9610834Y-13616024D01*
X9791786Y-13806500D02*
X9772739Y-13816024D01*
X9772739Y-13816024D02*
X9734643Y-13816024D01*
X9734643Y-13816024D02*
X9715596Y-13806500D01*
X9715596Y-13806500D02*
X9706072Y-13787452D01*
X9706072Y-13787452D02*
X9706072Y-13711262D01*
X9706072Y-13711262D02*
X9715596Y-13692214D01*
X9715596Y-13692214D02*
X9734643Y-13682690D01*
X9734643Y-13682690D02*
X9772739Y-13682690D01*
X9772739Y-13682690D02*
X9791786Y-13692214D01*
X9791786Y-13692214D02*
X9801310Y-13711262D01*
X9801310Y-13711262D02*
X9801310Y-13730309D01*
X9801310Y-13730309D02*
X9706072Y-13749357D01*
X9877500Y-13806500D02*
X9896548Y-13816024D01*
X9896548Y-13816024D02*
X9934643Y-13816024D01*
X9934643Y-13816024D02*
X9953691Y-13806500D01*
X9953691Y-13806500D02*
X9963215Y-13787452D01*
X9963215Y-13787452D02*
X9963215Y-13777928D01*
X9963215Y-13777928D02*
X9953691Y-13758881D01*
X9953691Y-13758881D02*
X9934643Y-13749357D01*
X9934643Y-13749357D02*
X9906072Y-13749357D01*
X9906072Y-13749357D02*
X9887024Y-13739833D01*
X9887024Y-13739833D02*
X9877500Y-13720786D01*
X9877500Y-13720786D02*
X9877500Y-13711262D01*
X9877500Y-13711262D02*
X9887024Y-13692214D01*
X9887024Y-13692214D02*
X9906072Y-13682690D01*
X9906072Y-13682690D02*
X9934643Y-13682690D01*
X9934643Y-13682690D02*
X9953691Y-13692214D01*
X10029881Y-13892214D02*
X10039405Y-13882690D01*
X10039405Y-13882690D02*
X10058453Y-13854119D01*
X10058453Y-13854119D02*
X10067977Y-13835071D01*
X10067977Y-13835071D02*
X10077500Y-13806500D01*
X10077500Y-13806500D02*
X10087024Y-13758881D01*
X10087024Y-13758881D02*
X10087024Y-13720786D01*
X10087024Y-13720786D02*
X10077500Y-13673167D01*
X10077500Y-13673167D02*
X10067977Y-13644595D01*
X10067977Y-13644595D02*
X10058453Y-13625548D01*
X10058453Y-13625548D02*
X10039405Y-13596976D01*
X10039405Y-13596976D02*
X10029881Y-13587452D01*
D13*
X5077500Y-13987500D02*
G75*
G03*
X5077500Y-13987500I-40000J0D01*
G01*
D11*
X5363214Y-13880024D02*
X5382262Y-13880024D01*
X5382262Y-13880024D02*
X5401310Y-13889548D01*
X5401310Y-13889548D02*
X5410833Y-13899071D01*
X5410833Y-13899071D02*
X5420357Y-13918119D01*
X5420357Y-13918119D02*
X5429881Y-13956214D01*
X5429881Y-13956214D02*
X5429881Y-14003833D01*
X5429881Y-14003833D02*
X5420357Y-14041928D01*
X5420357Y-14041928D02*
X5410833Y-14060976D01*
X5410833Y-14060976D02*
X5401310Y-14070500D01*
X5401310Y-14070500D02*
X5382262Y-14080024D01*
X5382262Y-14080024D02*
X5363214Y-14080024D01*
X5363214Y-14080024D02*
X5344167Y-14070500D01*
X5344167Y-14070500D02*
X5334643Y-14060976D01*
X5334643Y-14060976D02*
X5325119Y-14041928D01*
X5325119Y-14041928D02*
X5315595Y-14003833D01*
X5315595Y-14003833D02*
X5315595Y-13956214D01*
X5315595Y-13956214D02*
X5325119Y-13918119D01*
X5325119Y-13918119D02*
X5334643Y-13899071D01*
X5334643Y-13899071D02*
X5344167Y-13889548D01*
X5344167Y-13889548D02*
X5363214Y-13880024D01*
X5515595Y-14060976D02*
X5525119Y-14070500D01*
X5525119Y-14070500D02*
X5515595Y-14080024D01*
X5515595Y-14080024D02*
X5506071Y-14070500D01*
X5506071Y-14070500D02*
X5515595Y-14060976D01*
X5515595Y-14060976D02*
X5515595Y-14080024D01*
X5639405Y-13965738D02*
X5620357Y-13956214D01*
X5620357Y-13956214D02*
X5610833Y-13946690D01*
X5610833Y-13946690D02*
X5601309Y-13927643D01*
X5601309Y-13927643D02*
X5601309Y-13918119D01*
X5601309Y-13918119D02*
X5610833Y-13899071D01*
X5610833Y-13899071D02*
X5620357Y-13889548D01*
X5620357Y-13889548D02*
X5639405Y-13880024D01*
X5639405Y-13880024D02*
X5677500Y-13880024D01*
X5677500Y-13880024D02*
X5696548Y-13889548D01*
X5696548Y-13889548D02*
X5706071Y-13899071D01*
X5706071Y-13899071D02*
X5715595Y-13918119D01*
X5715595Y-13918119D02*
X5715595Y-13927643D01*
X5715595Y-13927643D02*
X5706071Y-13946690D01*
X5706071Y-13946690D02*
X5696548Y-13956214D01*
X5696548Y-13956214D02*
X5677500Y-13965738D01*
X5677500Y-13965738D02*
X5639405Y-13965738D01*
X5639405Y-13965738D02*
X5620357Y-13975262D01*
X5620357Y-13975262D02*
X5610833Y-13984786D01*
X5610833Y-13984786D02*
X5601309Y-14003833D01*
X5601309Y-14003833D02*
X5601309Y-14041928D01*
X5601309Y-14041928D02*
X5610833Y-14060976D01*
X5610833Y-14060976D02*
X5620357Y-14070500D01*
X5620357Y-14070500D02*
X5639405Y-14080024D01*
X5639405Y-14080024D02*
X5677500Y-14080024D01*
X5677500Y-14080024D02*
X5696548Y-14070500D01*
X5696548Y-14070500D02*
X5706071Y-14060976D01*
X5706071Y-14060976D02*
X5715595Y-14041928D01*
X5715595Y-14041928D02*
X5715595Y-14003833D01*
X5715595Y-14003833D02*
X5706071Y-13984786D01*
X5706071Y-13984786D02*
X5696548Y-13975262D01*
X5696548Y-13975262D02*
X5677500Y-13965738D01*
X5839405Y-13880024D02*
X5858452Y-13880024D01*
X5858452Y-13880024D02*
X5877500Y-13889548D01*
X5877500Y-13889548D02*
X5887024Y-13899071D01*
X5887024Y-13899071D02*
X5896548Y-13918119D01*
X5896548Y-13918119D02*
X5906071Y-13956214D01*
X5906071Y-13956214D02*
X5906071Y-14003833D01*
X5906071Y-14003833D02*
X5896548Y-14041928D01*
X5896548Y-14041928D02*
X5887024Y-14060976D01*
X5887024Y-14060976D02*
X5877500Y-14070500D01*
X5877500Y-14070500D02*
X5858452Y-14080024D01*
X5858452Y-14080024D02*
X5839405Y-14080024D01*
X5839405Y-14080024D02*
X5820357Y-14070500D01*
X5820357Y-14070500D02*
X5810833Y-14060976D01*
X5810833Y-14060976D02*
X5801309Y-14041928D01*
X5801309Y-14041928D02*
X5791786Y-14003833D01*
X5791786Y-14003833D02*
X5791786Y-13956214D01*
X5791786Y-13956214D02*
X5801309Y-13918119D01*
X5801309Y-13918119D02*
X5810833Y-13899071D01*
X5810833Y-13899071D02*
X5820357Y-13889548D01*
X5820357Y-13889548D02*
X5839405Y-13880024D01*
X6029881Y-13880024D02*
X6048929Y-13880024D01*
X6048929Y-13880024D02*
X6067976Y-13889548D01*
X6067976Y-13889548D02*
X6077500Y-13899071D01*
X6077500Y-13899071D02*
X6087024Y-13918119D01*
X6087024Y-13918119D02*
X6096548Y-13956214D01*
X6096548Y-13956214D02*
X6096548Y-14003833D01*
X6096548Y-14003833D02*
X6087024Y-14041928D01*
X6087024Y-14041928D02*
X6077500Y-14060976D01*
X6077500Y-14060976D02*
X6067976Y-14070500D01*
X6067976Y-14070500D02*
X6048929Y-14080024D01*
X6048929Y-14080024D02*
X6029881Y-14080024D01*
X6029881Y-14080024D02*
X6010833Y-14070500D01*
X6010833Y-14070500D02*
X6001309Y-14060976D01*
X6001309Y-14060976D02*
X5991786Y-14041928D01*
X5991786Y-14041928D02*
X5982262Y-14003833D01*
X5982262Y-14003833D02*
X5982262Y-13956214D01*
X5982262Y-13956214D02*
X5991786Y-13918119D01*
X5991786Y-13918119D02*
X6001309Y-13899071D01*
X6001309Y-13899071D02*
X6010833Y-13889548D01*
X6010833Y-13889548D02*
X6029881Y-13880024D01*
X6182262Y-14080024D02*
X6182262Y-13946690D01*
X6182262Y-13965738D02*
X6191786Y-13956214D01*
X6191786Y-13956214D02*
X6210833Y-13946690D01*
X6210833Y-13946690D02*
X6239405Y-13946690D01*
X6239405Y-13946690D02*
X6258452Y-13956214D01*
X6258452Y-13956214D02*
X6267976Y-13975262D01*
X6267976Y-13975262D02*
X6267976Y-14080024D01*
X6267976Y-13975262D02*
X6277500Y-13956214D01*
X6277500Y-13956214D02*
X6296548Y-13946690D01*
X6296548Y-13946690D02*
X6325119Y-13946690D01*
X6325119Y-13946690D02*
X6344167Y-13956214D01*
X6344167Y-13956214D02*
X6353690Y-13975262D01*
X6353690Y-13975262D02*
X6353690Y-14080024D01*
X6448929Y-14080024D02*
X6448929Y-13946690D01*
X6448929Y-13965738D02*
X6458452Y-13956214D01*
X6458452Y-13956214D02*
X6477500Y-13946690D01*
X6477500Y-13946690D02*
X6506071Y-13946690D01*
X6506071Y-13946690D02*
X6525119Y-13956214D01*
X6525119Y-13956214D02*
X6534643Y-13975262D01*
X6534643Y-13975262D02*
X6534643Y-14080024D01*
X6534643Y-13975262D02*
X6544167Y-13956214D01*
X6544167Y-13956214D02*
X6563214Y-13946690D01*
X6563214Y-13946690D02*
X6591786Y-13946690D01*
X6591786Y-13946690D02*
X6610833Y-13956214D01*
X6610833Y-13956214D02*
X6620357Y-13975262D01*
X6620357Y-13975262D02*
X6620357Y-14080024D01*
X7010833Y-13870500D02*
X6839405Y-14127643D01*
X7267976Y-13880024D02*
X7287024Y-13880024D01*
X7287024Y-13880024D02*
X7306072Y-13889548D01*
X7306072Y-13889548D02*
X7315595Y-13899071D01*
X7315595Y-13899071D02*
X7325119Y-13918119D01*
X7325119Y-13918119D02*
X7334643Y-13956214D01*
X7334643Y-13956214D02*
X7334643Y-14003833D01*
X7334643Y-14003833D02*
X7325119Y-14041928D01*
X7325119Y-14041928D02*
X7315595Y-14060976D01*
X7315595Y-14060976D02*
X7306072Y-14070500D01*
X7306072Y-14070500D02*
X7287024Y-14080024D01*
X7287024Y-14080024D02*
X7267976Y-14080024D01*
X7267976Y-14080024D02*
X7248929Y-14070500D01*
X7248929Y-14070500D02*
X7239405Y-14060976D01*
X7239405Y-14060976D02*
X7229881Y-14041928D01*
X7229881Y-14041928D02*
X7220357Y-14003833D01*
X7220357Y-14003833D02*
X7220357Y-13956214D01*
X7220357Y-13956214D02*
X7229881Y-13918119D01*
X7229881Y-13918119D02*
X7239405Y-13899071D01*
X7239405Y-13899071D02*
X7248929Y-13889548D01*
X7248929Y-13889548D02*
X7267976Y-13880024D01*
X7420357Y-14060976D02*
X7429881Y-14070500D01*
X7429881Y-14070500D02*
X7420357Y-14080024D01*
X7420357Y-14080024D02*
X7410833Y-14070500D01*
X7410833Y-14070500D02*
X7420357Y-14060976D01*
X7420357Y-14060976D02*
X7420357Y-14080024D01*
X7553691Y-13880024D02*
X7572738Y-13880024D01*
X7572738Y-13880024D02*
X7591786Y-13889548D01*
X7591786Y-13889548D02*
X7601310Y-13899071D01*
X7601310Y-13899071D02*
X7610833Y-13918119D01*
X7610833Y-13918119D02*
X7620357Y-13956214D01*
X7620357Y-13956214D02*
X7620357Y-14003833D01*
X7620357Y-14003833D02*
X7610833Y-14041928D01*
X7610833Y-14041928D02*
X7601310Y-14060976D01*
X7601310Y-14060976D02*
X7591786Y-14070500D01*
X7591786Y-14070500D02*
X7572738Y-14080024D01*
X7572738Y-14080024D02*
X7553691Y-14080024D01*
X7553691Y-14080024D02*
X7534643Y-14070500D01*
X7534643Y-14070500D02*
X7525119Y-14060976D01*
X7525119Y-14060976D02*
X7515595Y-14041928D01*
X7515595Y-14041928D02*
X7506072Y-14003833D01*
X7506072Y-14003833D02*
X7506072Y-13956214D01*
X7506072Y-13956214D02*
X7515595Y-13918119D01*
X7515595Y-13918119D02*
X7525119Y-13899071D01*
X7525119Y-13899071D02*
X7534643Y-13889548D01*
X7534643Y-13889548D02*
X7553691Y-13880024D01*
X7687024Y-13880024D02*
X7810833Y-13880024D01*
X7810833Y-13880024D02*
X7744167Y-13956214D01*
X7744167Y-13956214D02*
X7772738Y-13956214D01*
X7772738Y-13956214D02*
X7791786Y-13965738D01*
X7791786Y-13965738D02*
X7801310Y-13975262D01*
X7801310Y-13975262D02*
X7810833Y-13994309D01*
X7810833Y-13994309D02*
X7810833Y-14041928D01*
X7810833Y-14041928D02*
X7801310Y-14060976D01*
X7801310Y-14060976D02*
X7791786Y-14070500D01*
X7791786Y-14070500D02*
X7772738Y-14080024D01*
X7772738Y-14080024D02*
X7715595Y-14080024D01*
X7715595Y-14080024D02*
X7696548Y-14070500D01*
X7696548Y-14070500D02*
X7687024Y-14060976D01*
X8001310Y-14080024D02*
X7887024Y-14080024D01*
X7944167Y-14080024D02*
X7944167Y-13880024D01*
X7944167Y-13880024D02*
X7925119Y-13908595D01*
X7925119Y-13908595D02*
X7906072Y-13927643D01*
X7906072Y-13927643D02*
X7887024Y-13937167D01*
X8182262Y-13880024D02*
X8087024Y-13880024D01*
X8087024Y-13880024D02*
X8077500Y-13975262D01*
X8077500Y-13975262D02*
X8087024Y-13965738D01*
X8087024Y-13965738D02*
X8106072Y-13956214D01*
X8106072Y-13956214D02*
X8153691Y-13956214D01*
X8153691Y-13956214D02*
X8172738Y-13965738D01*
X8172738Y-13965738D02*
X8182262Y-13975262D01*
X8182262Y-13975262D02*
X8191786Y-13994309D01*
X8191786Y-13994309D02*
X8191786Y-14041928D01*
X8191786Y-14041928D02*
X8182262Y-14060976D01*
X8182262Y-14060976D02*
X8172738Y-14070500D01*
X8172738Y-14070500D02*
X8153691Y-14080024D01*
X8153691Y-14080024D02*
X8106072Y-14080024D01*
X8106072Y-14080024D02*
X8087024Y-14070500D01*
X8087024Y-14070500D02*
X8077500Y-14060976D01*
X8267976Y-13880024D02*
X8267976Y-13918119D01*
X8344167Y-13880024D02*
X8344167Y-13918119D01*
X8639405Y-14156214D02*
X8629881Y-14146690D01*
X8629881Y-14146690D02*
X8610834Y-14118119D01*
X8610834Y-14118119D02*
X8601310Y-14099071D01*
X8601310Y-14099071D02*
X8591786Y-14070500D01*
X8591786Y-14070500D02*
X8582262Y-14022881D01*
X8582262Y-14022881D02*
X8582262Y-13984786D01*
X8582262Y-13984786D02*
X8591786Y-13937167D01*
X8591786Y-13937167D02*
X8601310Y-13908595D01*
X8601310Y-13908595D02*
X8610834Y-13889548D01*
X8610834Y-13889548D02*
X8629881Y-13860976D01*
X8629881Y-13860976D02*
X8639405Y-13851452D01*
X8744167Y-13965738D02*
X8725119Y-13956214D01*
X8725119Y-13956214D02*
X8715596Y-13946690D01*
X8715596Y-13946690D02*
X8706072Y-13927643D01*
X8706072Y-13927643D02*
X8706072Y-13918119D01*
X8706072Y-13918119D02*
X8715596Y-13899071D01*
X8715596Y-13899071D02*
X8725119Y-13889548D01*
X8725119Y-13889548D02*
X8744167Y-13880024D01*
X8744167Y-13880024D02*
X8782262Y-13880024D01*
X8782262Y-13880024D02*
X8801310Y-13889548D01*
X8801310Y-13889548D02*
X8810834Y-13899071D01*
X8810834Y-13899071D02*
X8820357Y-13918119D01*
X8820357Y-13918119D02*
X8820357Y-13927643D01*
X8820357Y-13927643D02*
X8810834Y-13946690D01*
X8810834Y-13946690D02*
X8801310Y-13956214D01*
X8801310Y-13956214D02*
X8782262Y-13965738D01*
X8782262Y-13965738D02*
X8744167Y-13965738D01*
X8744167Y-13965738D02*
X8725119Y-13975262D01*
X8725119Y-13975262D02*
X8715596Y-13984786D01*
X8715596Y-13984786D02*
X8706072Y-14003833D01*
X8706072Y-14003833D02*
X8706072Y-14041928D01*
X8706072Y-14041928D02*
X8715596Y-14060976D01*
X8715596Y-14060976D02*
X8725119Y-14070500D01*
X8725119Y-14070500D02*
X8744167Y-14080024D01*
X8744167Y-14080024D02*
X8782262Y-14080024D01*
X8782262Y-14080024D02*
X8801310Y-14070500D01*
X8801310Y-14070500D02*
X8810834Y-14060976D01*
X8810834Y-14060976D02*
X8820357Y-14041928D01*
X8820357Y-14041928D02*
X8820357Y-14003833D01*
X8820357Y-14003833D02*
X8810834Y-13984786D01*
X8810834Y-13984786D02*
X8801310Y-13975262D01*
X8801310Y-13975262D02*
X8782262Y-13965738D01*
X8934643Y-13965738D02*
X8915596Y-13956214D01*
X8915596Y-13956214D02*
X8906072Y-13946690D01*
X8906072Y-13946690D02*
X8896548Y-13927643D01*
X8896548Y-13927643D02*
X8896548Y-13918119D01*
X8896548Y-13918119D02*
X8906072Y-13899071D01*
X8906072Y-13899071D02*
X8915596Y-13889548D01*
X8915596Y-13889548D02*
X8934643Y-13880024D01*
X8934643Y-13880024D02*
X8972738Y-13880024D01*
X8972738Y-13880024D02*
X8991786Y-13889548D01*
X8991786Y-13889548D02*
X9001310Y-13899071D01*
X9001310Y-13899071D02*
X9010834Y-13918119D01*
X9010834Y-13918119D02*
X9010834Y-13927643D01*
X9010834Y-13927643D02*
X9001310Y-13946690D01*
X9001310Y-13946690D02*
X8991786Y-13956214D01*
X8991786Y-13956214D02*
X8972738Y-13965738D01*
X8972738Y-13965738D02*
X8934643Y-13965738D01*
X8934643Y-13965738D02*
X8915596Y-13975262D01*
X8915596Y-13975262D02*
X8906072Y-13984786D01*
X8906072Y-13984786D02*
X8896548Y-14003833D01*
X8896548Y-14003833D02*
X8896548Y-14041928D01*
X8896548Y-14041928D02*
X8906072Y-14060976D01*
X8906072Y-14060976D02*
X8915596Y-14070500D01*
X8915596Y-14070500D02*
X8934643Y-14080024D01*
X8934643Y-14080024D02*
X8972738Y-14080024D01*
X8972738Y-14080024D02*
X8991786Y-14070500D01*
X8991786Y-14070500D02*
X9001310Y-14060976D01*
X9001310Y-14060976D02*
X9010834Y-14041928D01*
X9010834Y-14041928D02*
X9010834Y-14003833D01*
X9010834Y-14003833D02*
X9001310Y-13984786D01*
X9001310Y-13984786D02*
X8991786Y-13975262D01*
X8991786Y-13975262D02*
X8972738Y-13965738D01*
X9248929Y-14080024D02*
X9248929Y-13880024D01*
X9334643Y-14080024D02*
X9334643Y-13975262D01*
X9334643Y-13975262D02*
X9325119Y-13956214D01*
X9325119Y-13956214D02*
X9306072Y-13946690D01*
X9306072Y-13946690D02*
X9277500Y-13946690D01*
X9277500Y-13946690D02*
X9258453Y-13956214D01*
X9258453Y-13956214D02*
X9248929Y-13965738D01*
X9458453Y-14080024D02*
X9439405Y-14070500D01*
X9439405Y-14070500D02*
X9429881Y-14060976D01*
X9429881Y-14060976D02*
X9420358Y-14041928D01*
X9420358Y-14041928D02*
X9420358Y-13984786D01*
X9420358Y-13984786D02*
X9429881Y-13965738D01*
X9429881Y-13965738D02*
X9439405Y-13956214D01*
X9439405Y-13956214D02*
X9458453Y-13946690D01*
X9458453Y-13946690D02*
X9487024Y-13946690D01*
X9487024Y-13946690D02*
X9506072Y-13956214D01*
X9506072Y-13956214D02*
X9515596Y-13965738D01*
X9515596Y-13965738D02*
X9525119Y-13984786D01*
X9525119Y-13984786D02*
X9525119Y-14041928D01*
X9525119Y-14041928D02*
X9515596Y-14060976D01*
X9515596Y-14060976D02*
X9506072Y-14070500D01*
X9506072Y-14070500D02*
X9487024Y-14080024D01*
X9487024Y-14080024D02*
X9458453Y-14080024D01*
X9639405Y-14080024D02*
X9620358Y-14070500D01*
X9620358Y-14070500D02*
X9610834Y-14051452D01*
X9610834Y-14051452D02*
X9610834Y-13880024D01*
X9791786Y-14070500D02*
X9772739Y-14080024D01*
X9772739Y-14080024D02*
X9734643Y-14080024D01*
X9734643Y-14080024D02*
X9715596Y-14070500D01*
X9715596Y-14070500D02*
X9706072Y-14051452D01*
X9706072Y-14051452D02*
X9706072Y-13975262D01*
X9706072Y-13975262D02*
X9715596Y-13956214D01*
X9715596Y-13956214D02*
X9734643Y-13946690D01*
X9734643Y-13946690D02*
X9772739Y-13946690D01*
X9772739Y-13946690D02*
X9791786Y-13956214D01*
X9791786Y-13956214D02*
X9801310Y-13975262D01*
X9801310Y-13975262D02*
X9801310Y-13994309D01*
X9801310Y-13994309D02*
X9706072Y-14013357D01*
X9877500Y-14070500D02*
X9896548Y-14080024D01*
X9896548Y-14080024D02*
X9934643Y-14080024D01*
X9934643Y-14080024D02*
X9953691Y-14070500D01*
X9953691Y-14070500D02*
X9963215Y-14051452D01*
X9963215Y-14051452D02*
X9963215Y-14041928D01*
X9963215Y-14041928D02*
X9953691Y-14022881D01*
X9953691Y-14022881D02*
X9934643Y-14013357D01*
X9934643Y-14013357D02*
X9906072Y-14013357D01*
X9906072Y-14013357D02*
X9887024Y-14003833D01*
X9887024Y-14003833D02*
X9877500Y-13984786D01*
X9877500Y-13984786D02*
X9877500Y-13975262D01*
X9877500Y-13975262D02*
X9887024Y-13956214D01*
X9887024Y-13956214D02*
X9906072Y-13946690D01*
X9906072Y-13946690D02*
X9934643Y-13946690D01*
X9934643Y-13946690D02*
X9953691Y-13956214D01*
X10029881Y-14156214D02*
X10039405Y-14146690D01*
X10039405Y-14146690D02*
X10058453Y-14118119D01*
X10058453Y-14118119D02*
X10067977Y-14099071D01*
X10067977Y-14099071D02*
X10077500Y-14070500D01*
X10077500Y-14070500D02*
X10087024Y-14022881D01*
X10087024Y-14022881D02*
X10087024Y-13984786D01*
X10087024Y-13984786D02*
X10077500Y-13937167D01*
X10077500Y-13937167D02*
X10067977Y-13908595D01*
X10067977Y-13908595D02*
X10058453Y-13889548D01*
X10058453Y-13889548D02*
X10039405Y-13860976D01*
X10039405Y-13860976D02*
X10029881Y-13851452D01*
D14*
X5032500Y-14206500D02*
X5032500Y-14296500D01*
X4987500Y-14251500D02*
X5077500Y-14251500D01*
D11*
X5363214Y-14144024D02*
X5382262Y-14144024D01*
X5382262Y-14144024D02*
X5401310Y-14153548D01*
X5401310Y-14153548D02*
X5410833Y-14163071D01*
X5410833Y-14163071D02*
X5420357Y-14182119D01*
X5420357Y-14182119D02*
X5429881Y-14220214D01*
X5429881Y-14220214D02*
X5429881Y-14267833D01*
X5429881Y-14267833D02*
X5420357Y-14305928D01*
X5420357Y-14305928D02*
X5410833Y-14324976D01*
X5410833Y-14324976D02*
X5401310Y-14334500D01*
X5401310Y-14334500D02*
X5382262Y-14344024D01*
X5382262Y-14344024D02*
X5363214Y-14344024D01*
X5363214Y-14344024D02*
X5344167Y-14334500D01*
X5344167Y-14334500D02*
X5334643Y-14324976D01*
X5334643Y-14324976D02*
X5325119Y-14305928D01*
X5325119Y-14305928D02*
X5315595Y-14267833D01*
X5315595Y-14267833D02*
X5315595Y-14220214D01*
X5315595Y-14220214D02*
X5325119Y-14182119D01*
X5325119Y-14182119D02*
X5334643Y-14163071D01*
X5334643Y-14163071D02*
X5344167Y-14153548D01*
X5344167Y-14153548D02*
X5363214Y-14144024D01*
X5515595Y-14324976D02*
X5525119Y-14334500D01*
X5525119Y-14334500D02*
X5515595Y-14344024D01*
X5515595Y-14344024D02*
X5506071Y-14334500D01*
X5506071Y-14334500D02*
X5515595Y-14324976D01*
X5515595Y-14324976D02*
X5515595Y-14344024D01*
X5620357Y-14344024D02*
X5658452Y-14344024D01*
X5658452Y-14344024D02*
X5677500Y-14334500D01*
X5677500Y-14334500D02*
X5687024Y-14324976D01*
X5687024Y-14324976D02*
X5706071Y-14296405D01*
X5706071Y-14296405D02*
X5715595Y-14258309D01*
X5715595Y-14258309D02*
X5715595Y-14182119D01*
X5715595Y-14182119D02*
X5706071Y-14163071D01*
X5706071Y-14163071D02*
X5696548Y-14153548D01*
X5696548Y-14153548D02*
X5677500Y-14144024D01*
X5677500Y-14144024D02*
X5639405Y-14144024D01*
X5639405Y-14144024D02*
X5620357Y-14153548D01*
X5620357Y-14153548D02*
X5610833Y-14163071D01*
X5610833Y-14163071D02*
X5601309Y-14182119D01*
X5601309Y-14182119D02*
X5601309Y-14229738D01*
X5601309Y-14229738D02*
X5610833Y-14248786D01*
X5610833Y-14248786D02*
X5620357Y-14258309D01*
X5620357Y-14258309D02*
X5639405Y-14267833D01*
X5639405Y-14267833D02*
X5677500Y-14267833D01*
X5677500Y-14267833D02*
X5696548Y-14258309D01*
X5696548Y-14258309D02*
X5706071Y-14248786D01*
X5706071Y-14248786D02*
X5715595Y-14229738D01*
X5839405Y-14144024D02*
X5858452Y-14144024D01*
X5858452Y-14144024D02*
X5877500Y-14153548D01*
X5877500Y-14153548D02*
X5887024Y-14163071D01*
X5887024Y-14163071D02*
X5896548Y-14182119D01*
X5896548Y-14182119D02*
X5906071Y-14220214D01*
X5906071Y-14220214D02*
X5906071Y-14267833D01*
X5906071Y-14267833D02*
X5896548Y-14305928D01*
X5896548Y-14305928D02*
X5887024Y-14324976D01*
X5887024Y-14324976D02*
X5877500Y-14334500D01*
X5877500Y-14334500D02*
X5858452Y-14344024D01*
X5858452Y-14344024D02*
X5839405Y-14344024D01*
X5839405Y-14344024D02*
X5820357Y-14334500D01*
X5820357Y-14334500D02*
X5810833Y-14324976D01*
X5810833Y-14324976D02*
X5801309Y-14305928D01*
X5801309Y-14305928D02*
X5791786Y-14267833D01*
X5791786Y-14267833D02*
X5791786Y-14220214D01*
X5791786Y-14220214D02*
X5801309Y-14182119D01*
X5801309Y-14182119D02*
X5810833Y-14163071D01*
X5810833Y-14163071D02*
X5820357Y-14153548D01*
X5820357Y-14153548D02*
X5839405Y-14144024D01*
X6029881Y-14144024D02*
X6048929Y-14144024D01*
X6048929Y-14144024D02*
X6067976Y-14153548D01*
X6067976Y-14153548D02*
X6077500Y-14163071D01*
X6077500Y-14163071D02*
X6087024Y-14182119D01*
X6087024Y-14182119D02*
X6096548Y-14220214D01*
X6096548Y-14220214D02*
X6096548Y-14267833D01*
X6096548Y-14267833D02*
X6087024Y-14305928D01*
X6087024Y-14305928D02*
X6077500Y-14324976D01*
X6077500Y-14324976D02*
X6067976Y-14334500D01*
X6067976Y-14334500D02*
X6048929Y-14344024D01*
X6048929Y-14344024D02*
X6029881Y-14344024D01*
X6029881Y-14344024D02*
X6010833Y-14334500D01*
X6010833Y-14334500D02*
X6001309Y-14324976D01*
X6001309Y-14324976D02*
X5991786Y-14305928D01*
X5991786Y-14305928D02*
X5982262Y-14267833D01*
X5982262Y-14267833D02*
X5982262Y-14220214D01*
X5982262Y-14220214D02*
X5991786Y-14182119D01*
X5991786Y-14182119D02*
X6001309Y-14163071D01*
X6001309Y-14163071D02*
X6010833Y-14153548D01*
X6010833Y-14153548D02*
X6029881Y-14144024D01*
X6182262Y-14344024D02*
X6182262Y-14210690D01*
X6182262Y-14229738D02*
X6191786Y-14220214D01*
X6191786Y-14220214D02*
X6210833Y-14210690D01*
X6210833Y-14210690D02*
X6239405Y-14210690D01*
X6239405Y-14210690D02*
X6258452Y-14220214D01*
X6258452Y-14220214D02*
X6267976Y-14239262D01*
X6267976Y-14239262D02*
X6267976Y-14344024D01*
X6267976Y-14239262D02*
X6277500Y-14220214D01*
X6277500Y-14220214D02*
X6296548Y-14210690D01*
X6296548Y-14210690D02*
X6325119Y-14210690D01*
X6325119Y-14210690D02*
X6344167Y-14220214D01*
X6344167Y-14220214D02*
X6353690Y-14239262D01*
X6353690Y-14239262D02*
X6353690Y-14344024D01*
X6448929Y-14344024D02*
X6448929Y-14210690D01*
X6448929Y-14229738D02*
X6458452Y-14220214D01*
X6458452Y-14220214D02*
X6477500Y-14210690D01*
X6477500Y-14210690D02*
X6506071Y-14210690D01*
X6506071Y-14210690D02*
X6525119Y-14220214D01*
X6525119Y-14220214D02*
X6534643Y-14239262D01*
X6534643Y-14239262D02*
X6534643Y-14344024D01*
X6534643Y-14239262D02*
X6544167Y-14220214D01*
X6544167Y-14220214D02*
X6563214Y-14210690D01*
X6563214Y-14210690D02*
X6591786Y-14210690D01*
X6591786Y-14210690D02*
X6610833Y-14220214D01*
X6610833Y-14220214D02*
X6620357Y-14239262D01*
X6620357Y-14239262D02*
X6620357Y-14344024D01*
X7010833Y-14134500D02*
X6839405Y-14391643D01*
X7267976Y-14144024D02*
X7287024Y-14144024D01*
X7287024Y-14144024D02*
X7306072Y-14153548D01*
X7306072Y-14153548D02*
X7315595Y-14163071D01*
X7315595Y-14163071D02*
X7325119Y-14182119D01*
X7325119Y-14182119D02*
X7334643Y-14220214D01*
X7334643Y-14220214D02*
X7334643Y-14267833D01*
X7334643Y-14267833D02*
X7325119Y-14305928D01*
X7325119Y-14305928D02*
X7315595Y-14324976D01*
X7315595Y-14324976D02*
X7306072Y-14334500D01*
X7306072Y-14334500D02*
X7287024Y-14344024D01*
X7287024Y-14344024D02*
X7267976Y-14344024D01*
X7267976Y-14344024D02*
X7248929Y-14334500D01*
X7248929Y-14334500D02*
X7239405Y-14324976D01*
X7239405Y-14324976D02*
X7229881Y-14305928D01*
X7229881Y-14305928D02*
X7220357Y-14267833D01*
X7220357Y-14267833D02*
X7220357Y-14220214D01*
X7220357Y-14220214D02*
X7229881Y-14182119D01*
X7229881Y-14182119D02*
X7239405Y-14163071D01*
X7239405Y-14163071D02*
X7248929Y-14153548D01*
X7248929Y-14153548D02*
X7267976Y-14144024D01*
X7420357Y-14324976D02*
X7429881Y-14334500D01*
X7429881Y-14334500D02*
X7420357Y-14344024D01*
X7420357Y-14344024D02*
X7410833Y-14334500D01*
X7410833Y-14334500D02*
X7420357Y-14324976D01*
X7420357Y-14324976D02*
X7420357Y-14344024D01*
X7553691Y-14144024D02*
X7572738Y-14144024D01*
X7572738Y-14144024D02*
X7591786Y-14153548D01*
X7591786Y-14153548D02*
X7601310Y-14163071D01*
X7601310Y-14163071D02*
X7610833Y-14182119D01*
X7610833Y-14182119D02*
X7620357Y-14220214D01*
X7620357Y-14220214D02*
X7620357Y-14267833D01*
X7620357Y-14267833D02*
X7610833Y-14305928D01*
X7610833Y-14305928D02*
X7601310Y-14324976D01*
X7601310Y-14324976D02*
X7591786Y-14334500D01*
X7591786Y-14334500D02*
X7572738Y-14344024D01*
X7572738Y-14344024D02*
X7553691Y-14344024D01*
X7553691Y-14344024D02*
X7534643Y-14334500D01*
X7534643Y-14334500D02*
X7525119Y-14324976D01*
X7525119Y-14324976D02*
X7515595Y-14305928D01*
X7515595Y-14305928D02*
X7506072Y-14267833D01*
X7506072Y-14267833D02*
X7506072Y-14220214D01*
X7506072Y-14220214D02*
X7515595Y-14182119D01*
X7515595Y-14182119D02*
X7525119Y-14163071D01*
X7525119Y-14163071D02*
X7534643Y-14153548D01*
X7534643Y-14153548D02*
X7553691Y-14144024D01*
X7687024Y-14144024D02*
X7810833Y-14144024D01*
X7810833Y-14144024D02*
X7744167Y-14220214D01*
X7744167Y-14220214D02*
X7772738Y-14220214D01*
X7772738Y-14220214D02*
X7791786Y-14229738D01*
X7791786Y-14229738D02*
X7801310Y-14239262D01*
X7801310Y-14239262D02*
X7810833Y-14258309D01*
X7810833Y-14258309D02*
X7810833Y-14305928D01*
X7810833Y-14305928D02*
X7801310Y-14324976D01*
X7801310Y-14324976D02*
X7791786Y-14334500D01*
X7791786Y-14334500D02*
X7772738Y-14344024D01*
X7772738Y-14344024D02*
X7715595Y-14344024D01*
X7715595Y-14344024D02*
X7696548Y-14334500D01*
X7696548Y-14334500D02*
X7687024Y-14324976D01*
X7991786Y-14144024D02*
X7896548Y-14144024D01*
X7896548Y-14144024D02*
X7887024Y-14239262D01*
X7887024Y-14239262D02*
X7896548Y-14229738D01*
X7896548Y-14229738D02*
X7915595Y-14220214D01*
X7915595Y-14220214D02*
X7963214Y-14220214D01*
X7963214Y-14220214D02*
X7982262Y-14229738D01*
X7982262Y-14229738D02*
X7991786Y-14239262D01*
X7991786Y-14239262D02*
X8001310Y-14258309D01*
X8001310Y-14258309D02*
X8001310Y-14305928D01*
X8001310Y-14305928D02*
X7991786Y-14324976D01*
X7991786Y-14324976D02*
X7982262Y-14334500D01*
X7982262Y-14334500D02*
X7963214Y-14344024D01*
X7963214Y-14344024D02*
X7915595Y-14344024D01*
X7915595Y-14344024D02*
X7896548Y-14334500D01*
X7896548Y-14334500D02*
X7887024Y-14324976D01*
X8172738Y-14210690D02*
X8172738Y-14344024D01*
X8125119Y-14134500D02*
X8077500Y-14277357D01*
X8077500Y-14277357D02*
X8201310Y-14277357D01*
X8267976Y-14144024D02*
X8267976Y-14182119D01*
X8344167Y-14144024D02*
X8344167Y-14182119D01*
X8639405Y-14420214D02*
X8629881Y-14410690D01*
X8629881Y-14410690D02*
X8610834Y-14382119D01*
X8610834Y-14382119D02*
X8601310Y-14363071D01*
X8601310Y-14363071D02*
X8591786Y-14334500D01*
X8591786Y-14334500D02*
X8582262Y-14286881D01*
X8582262Y-14286881D02*
X8582262Y-14248786D01*
X8582262Y-14248786D02*
X8591786Y-14201167D01*
X8591786Y-14201167D02*
X8601310Y-14172595D01*
X8601310Y-14172595D02*
X8610834Y-14153548D01*
X8610834Y-14153548D02*
X8629881Y-14124976D01*
X8629881Y-14124976D02*
X8639405Y-14115452D01*
X8706072Y-14163071D02*
X8715596Y-14153548D01*
X8715596Y-14153548D02*
X8734643Y-14144024D01*
X8734643Y-14144024D02*
X8782262Y-14144024D01*
X8782262Y-14144024D02*
X8801310Y-14153548D01*
X8801310Y-14153548D02*
X8810834Y-14163071D01*
X8810834Y-14163071D02*
X8820357Y-14182119D01*
X8820357Y-14182119D02*
X8820357Y-14201167D01*
X8820357Y-14201167D02*
X8810834Y-14229738D01*
X8810834Y-14229738D02*
X8696548Y-14344024D01*
X8696548Y-14344024D02*
X8820357Y-14344024D01*
X9058453Y-14344024D02*
X9058453Y-14144024D01*
X9144167Y-14344024D02*
X9144167Y-14239262D01*
X9144167Y-14239262D02*
X9134643Y-14220214D01*
X9134643Y-14220214D02*
X9115596Y-14210690D01*
X9115596Y-14210690D02*
X9087024Y-14210690D01*
X9087024Y-14210690D02*
X9067977Y-14220214D01*
X9067977Y-14220214D02*
X9058453Y-14229738D01*
X9267977Y-14344024D02*
X9248929Y-14334500D01*
X9248929Y-14334500D02*
X9239405Y-14324976D01*
X9239405Y-14324976D02*
X9229881Y-14305928D01*
X9229881Y-14305928D02*
X9229881Y-14248786D01*
X9229881Y-14248786D02*
X9239405Y-14229738D01*
X9239405Y-14229738D02*
X9248929Y-14220214D01*
X9248929Y-14220214D02*
X9267977Y-14210690D01*
X9267977Y-14210690D02*
X9296548Y-14210690D01*
X9296548Y-14210690D02*
X9315596Y-14220214D01*
X9315596Y-14220214D02*
X9325119Y-14229738D01*
X9325119Y-14229738D02*
X9334643Y-14248786D01*
X9334643Y-14248786D02*
X9334643Y-14305928D01*
X9334643Y-14305928D02*
X9325119Y-14324976D01*
X9325119Y-14324976D02*
X9315596Y-14334500D01*
X9315596Y-14334500D02*
X9296548Y-14344024D01*
X9296548Y-14344024D02*
X9267977Y-14344024D01*
X9448929Y-14344024D02*
X9429881Y-14334500D01*
X9429881Y-14334500D02*
X9420358Y-14315452D01*
X9420358Y-14315452D02*
X9420358Y-14144024D01*
X9601310Y-14334500D02*
X9582262Y-14344024D01*
X9582262Y-14344024D02*
X9544167Y-14344024D01*
X9544167Y-14344024D02*
X9525119Y-14334500D01*
X9525119Y-14334500D02*
X9515596Y-14315452D01*
X9515596Y-14315452D02*
X9515596Y-14239262D01*
X9515596Y-14239262D02*
X9525119Y-14220214D01*
X9525119Y-14220214D02*
X9544167Y-14210690D01*
X9544167Y-14210690D02*
X9582262Y-14210690D01*
X9582262Y-14210690D02*
X9601310Y-14220214D01*
X9601310Y-14220214D02*
X9610834Y-14239262D01*
X9610834Y-14239262D02*
X9610834Y-14258309D01*
X9610834Y-14258309D02*
X9515596Y-14277357D01*
X9687024Y-14334500D02*
X9706072Y-14344024D01*
X9706072Y-14344024D02*
X9744167Y-14344024D01*
X9744167Y-14344024D02*
X9763215Y-14334500D01*
X9763215Y-14334500D02*
X9772739Y-14315452D01*
X9772739Y-14315452D02*
X9772739Y-14305928D01*
X9772739Y-14305928D02*
X9763215Y-14286881D01*
X9763215Y-14286881D02*
X9744167Y-14277357D01*
X9744167Y-14277357D02*
X9715596Y-14277357D01*
X9715596Y-14277357D02*
X9696548Y-14267833D01*
X9696548Y-14267833D02*
X9687024Y-14248786D01*
X9687024Y-14248786D02*
X9687024Y-14239262D01*
X9687024Y-14239262D02*
X9696548Y-14220214D01*
X9696548Y-14220214D02*
X9715596Y-14210690D01*
X9715596Y-14210690D02*
X9744167Y-14210690D01*
X9744167Y-14210690D02*
X9763215Y-14220214D01*
X9839405Y-14420214D02*
X9848929Y-14410690D01*
X9848929Y-14410690D02*
X9867977Y-14382119D01*
X9867977Y-14382119D02*
X9877500Y-14363071D01*
X9877500Y-14363071D02*
X9887024Y-14334500D01*
X9887024Y-14334500D02*
X9896548Y-14286881D01*
X9896548Y-14286881D02*
X9896548Y-14248786D01*
X9896548Y-14248786D02*
X9887024Y-14201167D01*
X9887024Y-14201167D02*
X9877500Y-14172595D01*
X9877500Y-14172595D02*
X9867977Y-14153548D01*
X9867977Y-14153548D02*
X9848929Y-14124976D01*
X9848929Y-14124976D02*
X9839405Y-14115452D01*
D15*
X5062563Y-14551563D02*
X5062563Y-14479437D01*
X4990437Y-14479437D01*
X4990437Y-14551563D01*
X5062563Y-14551563D01*
D11*
X5429881Y-14608024D02*
X5315595Y-14608024D01*
X5372738Y-14608024D02*
X5372738Y-14408024D01*
X5372738Y-14408024D02*
X5353690Y-14436595D01*
X5353690Y-14436595D02*
X5334643Y-14455643D01*
X5334643Y-14455643D02*
X5315595Y-14465167D01*
X5515595Y-14588976D02*
X5525119Y-14598500D01*
X5525119Y-14598500D02*
X5515595Y-14608024D01*
X5515595Y-14608024D02*
X5506071Y-14598500D01*
X5506071Y-14598500D02*
X5515595Y-14588976D01*
X5515595Y-14588976D02*
X5515595Y-14608024D01*
X5648928Y-14408024D02*
X5667976Y-14408024D01*
X5667976Y-14408024D02*
X5687024Y-14417548D01*
X5687024Y-14417548D02*
X5696548Y-14427071D01*
X5696548Y-14427071D02*
X5706071Y-14446119D01*
X5706071Y-14446119D02*
X5715595Y-14484214D01*
X5715595Y-14484214D02*
X5715595Y-14531833D01*
X5715595Y-14531833D02*
X5706071Y-14569928D01*
X5706071Y-14569928D02*
X5696548Y-14588976D01*
X5696548Y-14588976D02*
X5687024Y-14598500D01*
X5687024Y-14598500D02*
X5667976Y-14608024D01*
X5667976Y-14608024D02*
X5648928Y-14608024D01*
X5648928Y-14608024D02*
X5629881Y-14598500D01*
X5629881Y-14598500D02*
X5620357Y-14588976D01*
X5620357Y-14588976D02*
X5610833Y-14569928D01*
X5610833Y-14569928D02*
X5601309Y-14531833D01*
X5601309Y-14531833D02*
X5601309Y-14484214D01*
X5601309Y-14484214D02*
X5610833Y-14446119D01*
X5610833Y-14446119D02*
X5620357Y-14427071D01*
X5620357Y-14427071D02*
X5629881Y-14417548D01*
X5629881Y-14417548D02*
X5648928Y-14408024D01*
X5791786Y-14427071D02*
X5801309Y-14417548D01*
X5801309Y-14417548D02*
X5820357Y-14408024D01*
X5820357Y-14408024D02*
X5867976Y-14408024D01*
X5867976Y-14408024D02*
X5887024Y-14417548D01*
X5887024Y-14417548D02*
X5896548Y-14427071D01*
X5896548Y-14427071D02*
X5906071Y-14446119D01*
X5906071Y-14446119D02*
X5906071Y-14465167D01*
X5906071Y-14465167D02*
X5896548Y-14493738D01*
X5896548Y-14493738D02*
X5782262Y-14608024D01*
X5782262Y-14608024D02*
X5906071Y-14608024D01*
X6029881Y-14408024D02*
X6048929Y-14408024D01*
X6048929Y-14408024D02*
X6067976Y-14417548D01*
X6067976Y-14417548D02*
X6077500Y-14427071D01*
X6077500Y-14427071D02*
X6087024Y-14446119D01*
X6087024Y-14446119D02*
X6096548Y-14484214D01*
X6096548Y-14484214D02*
X6096548Y-14531833D01*
X6096548Y-14531833D02*
X6087024Y-14569928D01*
X6087024Y-14569928D02*
X6077500Y-14588976D01*
X6077500Y-14588976D02*
X6067976Y-14598500D01*
X6067976Y-14598500D02*
X6048929Y-14608024D01*
X6048929Y-14608024D02*
X6029881Y-14608024D01*
X6029881Y-14608024D02*
X6010833Y-14598500D01*
X6010833Y-14598500D02*
X6001309Y-14588976D01*
X6001309Y-14588976D02*
X5991786Y-14569928D01*
X5991786Y-14569928D02*
X5982262Y-14531833D01*
X5982262Y-14531833D02*
X5982262Y-14484214D01*
X5982262Y-14484214D02*
X5991786Y-14446119D01*
X5991786Y-14446119D02*
X6001309Y-14427071D01*
X6001309Y-14427071D02*
X6010833Y-14417548D01*
X6010833Y-14417548D02*
X6029881Y-14408024D01*
X6182262Y-14608024D02*
X6182262Y-14474690D01*
X6182262Y-14493738D02*
X6191786Y-14484214D01*
X6191786Y-14484214D02*
X6210833Y-14474690D01*
X6210833Y-14474690D02*
X6239405Y-14474690D01*
X6239405Y-14474690D02*
X6258452Y-14484214D01*
X6258452Y-14484214D02*
X6267976Y-14503262D01*
X6267976Y-14503262D02*
X6267976Y-14608024D01*
X6267976Y-14503262D02*
X6277500Y-14484214D01*
X6277500Y-14484214D02*
X6296548Y-14474690D01*
X6296548Y-14474690D02*
X6325119Y-14474690D01*
X6325119Y-14474690D02*
X6344167Y-14484214D01*
X6344167Y-14484214D02*
X6353690Y-14503262D01*
X6353690Y-14503262D02*
X6353690Y-14608024D01*
X6448929Y-14608024D02*
X6448929Y-14474690D01*
X6448929Y-14493738D02*
X6458452Y-14484214D01*
X6458452Y-14484214D02*
X6477500Y-14474690D01*
X6477500Y-14474690D02*
X6506071Y-14474690D01*
X6506071Y-14474690D02*
X6525119Y-14484214D01*
X6525119Y-14484214D02*
X6534643Y-14503262D01*
X6534643Y-14503262D02*
X6534643Y-14608024D01*
X6534643Y-14503262D02*
X6544167Y-14484214D01*
X6544167Y-14484214D02*
X6563214Y-14474690D01*
X6563214Y-14474690D02*
X6591786Y-14474690D01*
X6591786Y-14474690D02*
X6610833Y-14484214D01*
X6610833Y-14484214D02*
X6620357Y-14503262D01*
X6620357Y-14503262D02*
X6620357Y-14608024D01*
X7010833Y-14398500D02*
X6839405Y-14655643D01*
X7267976Y-14408024D02*
X7287024Y-14408024D01*
X7287024Y-14408024D02*
X7306072Y-14417548D01*
X7306072Y-14417548D02*
X7315595Y-14427071D01*
X7315595Y-14427071D02*
X7325119Y-14446119D01*
X7325119Y-14446119D02*
X7334643Y-14484214D01*
X7334643Y-14484214D02*
X7334643Y-14531833D01*
X7334643Y-14531833D02*
X7325119Y-14569928D01*
X7325119Y-14569928D02*
X7315595Y-14588976D01*
X7315595Y-14588976D02*
X7306072Y-14598500D01*
X7306072Y-14598500D02*
X7287024Y-14608024D01*
X7287024Y-14608024D02*
X7267976Y-14608024D01*
X7267976Y-14608024D02*
X7248929Y-14598500D01*
X7248929Y-14598500D02*
X7239405Y-14588976D01*
X7239405Y-14588976D02*
X7229881Y-14569928D01*
X7229881Y-14569928D02*
X7220357Y-14531833D01*
X7220357Y-14531833D02*
X7220357Y-14484214D01*
X7220357Y-14484214D02*
X7229881Y-14446119D01*
X7229881Y-14446119D02*
X7239405Y-14427071D01*
X7239405Y-14427071D02*
X7248929Y-14417548D01*
X7248929Y-14417548D02*
X7267976Y-14408024D01*
X7420357Y-14588976D02*
X7429881Y-14598500D01*
X7429881Y-14598500D02*
X7420357Y-14608024D01*
X7420357Y-14608024D02*
X7410833Y-14598500D01*
X7410833Y-14598500D02*
X7420357Y-14588976D01*
X7420357Y-14588976D02*
X7420357Y-14608024D01*
X7553691Y-14408024D02*
X7572738Y-14408024D01*
X7572738Y-14408024D02*
X7591786Y-14417548D01*
X7591786Y-14417548D02*
X7601310Y-14427071D01*
X7601310Y-14427071D02*
X7610833Y-14446119D01*
X7610833Y-14446119D02*
X7620357Y-14484214D01*
X7620357Y-14484214D02*
X7620357Y-14531833D01*
X7620357Y-14531833D02*
X7610833Y-14569928D01*
X7610833Y-14569928D02*
X7601310Y-14588976D01*
X7601310Y-14588976D02*
X7591786Y-14598500D01*
X7591786Y-14598500D02*
X7572738Y-14608024D01*
X7572738Y-14608024D02*
X7553691Y-14608024D01*
X7553691Y-14608024D02*
X7534643Y-14598500D01*
X7534643Y-14598500D02*
X7525119Y-14588976D01*
X7525119Y-14588976D02*
X7515595Y-14569928D01*
X7515595Y-14569928D02*
X7506072Y-14531833D01*
X7506072Y-14531833D02*
X7506072Y-14484214D01*
X7506072Y-14484214D02*
X7515595Y-14446119D01*
X7515595Y-14446119D02*
X7525119Y-14427071D01*
X7525119Y-14427071D02*
X7534643Y-14417548D01*
X7534643Y-14417548D02*
X7553691Y-14408024D01*
X7791786Y-14474690D02*
X7791786Y-14608024D01*
X7744167Y-14398500D02*
X7696548Y-14541357D01*
X7696548Y-14541357D02*
X7820357Y-14541357D01*
X7934643Y-14408024D02*
X7953691Y-14408024D01*
X7953691Y-14408024D02*
X7972738Y-14417548D01*
X7972738Y-14417548D02*
X7982262Y-14427071D01*
X7982262Y-14427071D02*
X7991786Y-14446119D01*
X7991786Y-14446119D02*
X8001310Y-14484214D01*
X8001310Y-14484214D02*
X8001310Y-14531833D01*
X8001310Y-14531833D02*
X7991786Y-14569928D01*
X7991786Y-14569928D02*
X7982262Y-14588976D01*
X7982262Y-14588976D02*
X7972738Y-14598500D01*
X7972738Y-14598500D02*
X7953691Y-14608024D01*
X7953691Y-14608024D02*
X7934643Y-14608024D01*
X7934643Y-14608024D02*
X7915595Y-14598500D01*
X7915595Y-14598500D02*
X7906072Y-14588976D01*
X7906072Y-14588976D02*
X7896548Y-14569928D01*
X7896548Y-14569928D02*
X7887024Y-14531833D01*
X7887024Y-14531833D02*
X7887024Y-14484214D01*
X7887024Y-14484214D02*
X7896548Y-14446119D01*
X7896548Y-14446119D02*
X7906072Y-14427071D01*
X7906072Y-14427071D02*
X7915595Y-14417548D01*
X7915595Y-14417548D02*
X7934643Y-14408024D01*
X8077500Y-14427071D02*
X8087024Y-14417548D01*
X8087024Y-14417548D02*
X8106072Y-14408024D01*
X8106072Y-14408024D02*
X8153691Y-14408024D01*
X8153691Y-14408024D02*
X8172738Y-14417548D01*
X8172738Y-14417548D02*
X8182262Y-14427071D01*
X8182262Y-14427071D02*
X8191786Y-14446119D01*
X8191786Y-14446119D02*
X8191786Y-14465167D01*
X8191786Y-14465167D02*
X8182262Y-14493738D01*
X8182262Y-14493738D02*
X8067976Y-14608024D01*
X8067976Y-14608024D02*
X8191786Y-14608024D01*
X8267976Y-14408024D02*
X8267976Y-14446119D01*
X8344167Y-14408024D02*
X8344167Y-14446119D01*
X8639405Y-14684214D02*
X8629881Y-14674690D01*
X8629881Y-14674690D02*
X8610834Y-14646119D01*
X8610834Y-14646119D02*
X8601310Y-14627071D01*
X8601310Y-14627071D02*
X8591786Y-14598500D01*
X8591786Y-14598500D02*
X8582262Y-14550881D01*
X8582262Y-14550881D02*
X8582262Y-14512786D01*
X8582262Y-14512786D02*
X8591786Y-14465167D01*
X8591786Y-14465167D02*
X8601310Y-14436595D01*
X8601310Y-14436595D02*
X8610834Y-14417548D01*
X8610834Y-14417548D02*
X8629881Y-14388976D01*
X8629881Y-14388976D02*
X8639405Y-14379452D01*
X8696548Y-14408024D02*
X8820357Y-14408024D01*
X8820357Y-14408024D02*
X8753691Y-14484214D01*
X8753691Y-14484214D02*
X8782262Y-14484214D01*
X8782262Y-14484214D02*
X8801310Y-14493738D01*
X8801310Y-14493738D02*
X8810834Y-14503262D01*
X8810834Y-14503262D02*
X8820357Y-14522309D01*
X8820357Y-14522309D02*
X8820357Y-14569928D01*
X8820357Y-14569928D02*
X8810834Y-14588976D01*
X8810834Y-14588976D02*
X8801310Y-14598500D01*
X8801310Y-14598500D02*
X8782262Y-14608024D01*
X8782262Y-14608024D02*
X8725119Y-14608024D01*
X8725119Y-14608024D02*
X8706072Y-14598500D01*
X8706072Y-14598500D02*
X8696548Y-14588976D01*
X8944167Y-14408024D02*
X8963215Y-14408024D01*
X8963215Y-14408024D02*
X8982262Y-14417548D01*
X8982262Y-14417548D02*
X8991786Y-14427071D01*
X8991786Y-14427071D02*
X9001310Y-14446119D01*
X9001310Y-14446119D02*
X9010834Y-14484214D01*
X9010834Y-14484214D02*
X9010834Y-14531833D01*
X9010834Y-14531833D02*
X9001310Y-14569928D01*
X9001310Y-14569928D02*
X8991786Y-14588976D01*
X8991786Y-14588976D02*
X8982262Y-14598500D01*
X8982262Y-14598500D02*
X8963215Y-14608024D01*
X8963215Y-14608024D02*
X8944167Y-14608024D01*
X8944167Y-14608024D02*
X8925119Y-14598500D01*
X8925119Y-14598500D02*
X8915596Y-14588976D01*
X8915596Y-14588976D02*
X8906072Y-14569928D01*
X8906072Y-14569928D02*
X8896548Y-14531833D01*
X8896548Y-14531833D02*
X8896548Y-14484214D01*
X8896548Y-14484214D02*
X8906072Y-14446119D01*
X8906072Y-14446119D02*
X8915596Y-14427071D01*
X8915596Y-14427071D02*
X8925119Y-14417548D01*
X8925119Y-14417548D02*
X8944167Y-14408024D01*
X9248929Y-14608024D02*
X9248929Y-14408024D01*
X9334643Y-14608024D02*
X9334643Y-14503262D01*
X9334643Y-14503262D02*
X9325119Y-14484214D01*
X9325119Y-14484214D02*
X9306072Y-14474690D01*
X9306072Y-14474690D02*
X9277500Y-14474690D01*
X9277500Y-14474690D02*
X9258453Y-14484214D01*
X9258453Y-14484214D02*
X9248929Y-14493738D01*
X9458453Y-14608024D02*
X9439405Y-14598500D01*
X9439405Y-14598500D02*
X9429881Y-14588976D01*
X9429881Y-14588976D02*
X9420358Y-14569928D01*
X9420358Y-14569928D02*
X9420358Y-14512786D01*
X9420358Y-14512786D02*
X9429881Y-14493738D01*
X9429881Y-14493738D02*
X9439405Y-14484214D01*
X9439405Y-14484214D02*
X9458453Y-14474690D01*
X9458453Y-14474690D02*
X9487024Y-14474690D01*
X9487024Y-14474690D02*
X9506072Y-14484214D01*
X9506072Y-14484214D02*
X9515596Y-14493738D01*
X9515596Y-14493738D02*
X9525119Y-14512786D01*
X9525119Y-14512786D02*
X9525119Y-14569928D01*
X9525119Y-14569928D02*
X9515596Y-14588976D01*
X9515596Y-14588976D02*
X9506072Y-14598500D01*
X9506072Y-14598500D02*
X9487024Y-14608024D01*
X9487024Y-14608024D02*
X9458453Y-14608024D01*
X9639405Y-14608024D02*
X9620358Y-14598500D01*
X9620358Y-14598500D02*
X9610834Y-14579452D01*
X9610834Y-14579452D02*
X9610834Y-14408024D01*
X9791786Y-14598500D02*
X9772739Y-14608024D01*
X9772739Y-14608024D02*
X9734643Y-14608024D01*
X9734643Y-14608024D02*
X9715596Y-14598500D01*
X9715596Y-14598500D02*
X9706072Y-14579452D01*
X9706072Y-14579452D02*
X9706072Y-14503262D01*
X9706072Y-14503262D02*
X9715596Y-14484214D01*
X9715596Y-14484214D02*
X9734643Y-14474690D01*
X9734643Y-14474690D02*
X9772739Y-14474690D01*
X9772739Y-14474690D02*
X9791786Y-14484214D01*
X9791786Y-14484214D02*
X9801310Y-14503262D01*
X9801310Y-14503262D02*
X9801310Y-14522309D01*
X9801310Y-14522309D02*
X9706072Y-14541357D01*
X9877500Y-14598500D02*
X9896548Y-14608024D01*
X9896548Y-14608024D02*
X9934643Y-14608024D01*
X9934643Y-14608024D02*
X9953691Y-14598500D01*
X9953691Y-14598500D02*
X9963215Y-14579452D01*
X9963215Y-14579452D02*
X9963215Y-14569928D01*
X9963215Y-14569928D02*
X9953691Y-14550881D01*
X9953691Y-14550881D02*
X9934643Y-14541357D01*
X9934643Y-14541357D02*
X9906072Y-14541357D01*
X9906072Y-14541357D02*
X9887024Y-14531833D01*
X9887024Y-14531833D02*
X9877500Y-14512786D01*
X9877500Y-14512786D02*
X9877500Y-14503262D01*
X9877500Y-14503262D02*
X9887024Y-14484214D01*
X9887024Y-14484214D02*
X9906072Y-14474690D01*
X9906072Y-14474690D02*
X9934643Y-14474690D01*
X9934643Y-14474690D02*
X9953691Y-14484214D01*
X10029881Y-14684214D02*
X10039405Y-14674690D01*
X10039405Y-14674690D02*
X10058453Y-14646119D01*
X10058453Y-14646119D02*
X10067977Y-14627071D01*
X10067977Y-14627071D02*
X10077500Y-14598500D01*
X10077500Y-14598500D02*
X10087024Y-14550881D01*
X10087024Y-14550881D02*
X10087024Y-14512786D01*
X10087024Y-14512786D02*
X10077500Y-14465167D01*
X10077500Y-14465167D02*
X10067977Y-14436595D01*
X10067977Y-14436595D02*
X10058453Y-14417548D01*
X10058453Y-14417548D02*
X10039405Y-14388976D01*
X10039405Y-14388976D02*
X10029881Y-14379452D01*
D16*
X5007500Y-14849500D02*
X5077500Y-14779500D01*
X5007500Y-14709500D01*
X4937500Y-14779500D01*
X5007500Y-14849500D01*
D11*
X5429881Y-14872024D02*
X5315595Y-14872024D01*
X5372738Y-14872024D02*
X5372738Y-14672024D01*
X5372738Y-14672024D02*
X5353690Y-14700595D01*
X5353690Y-14700595D02*
X5334643Y-14719643D01*
X5334643Y-14719643D02*
X5315595Y-14729167D01*
X5515595Y-14852976D02*
X5525119Y-14862500D01*
X5525119Y-14862500D02*
X5515595Y-14872024D01*
X5515595Y-14872024D02*
X5506071Y-14862500D01*
X5506071Y-14862500D02*
X5515595Y-14852976D01*
X5515595Y-14852976D02*
X5515595Y-14872024D01*
X5696548Y-14738690D02*
X5696548Y-14872024D01*
X5648928Y-14662500D02*
X5601309Y-14805357D01*
X5601309Y-14805357D02*
X5725119Y-14805357D01*
X5839405Y-14672024D02*
X5858452Y-14672024D01*
X5858452Y-14672024D02*
X5877500Y-14681548D01*
X5877500Y-14681548D02*
X5887024Y-14691071D01*
X5887024Y-14691071D02*
X5896548Y-14710119D01*
X5896548Y-14710119D02*
X5906071Y-14748214D01*
X5906071Y-14748214D02*
X5906071Y-14795833D01*
X5906071Y-14795833D02*
X5896548Y-14833928D01*
X5896548Y-14833928D02*
X5887024Y-14852976D01*
X5887024Y-14852976D02*
X5877500Y-14862500D01*
X5877500Y-14862500D02*
X5858452Y-14872024D01*
X5858452Y-14872024D02*
X5839405Y-14872024D01*
X5839405Y-14872024D02*
X5820357Y-14862500D01*
X5820357Y-14862500D02*
X5810833Y-14852976D01*
X5810833Y-14852976D02*
X5801309Y-14833928D01*
X5801309Y-14833928D02*
X5791786Y-14795833D01*
X5791786Y-14795833D02*
X5791786Y-14748214D01*
X5791786Y-14748214D02*
X5801309Y-14710119D01*
X5801309Y-14710119D02*
X5810833Y-14691071D01*
X5810833Y-14691071D02*
X5820357Y-14681548D01*
X5820357Y-14681548D02*
X5839405Y-14672024D01*
X6029881Y-14672024D02*
X6048929Y-14672024D01*
X6048929Y-14672024D02*
X6067976Y-14681548D01*
X6067976Y-14681548D02*
X6077500Y-14691071D01*
X6077500Y-14691071D02*
X6087024Y-14710119D01*
X6087024Y-14710119D02*
X6096548Y-14748214D01*
X6096548Y-14748214D02*
X6096548Y-14795833D01*
X6096548Y-14795833D02*
X6087024Y-14833928D01*
X6087024Y-14833928D02*
X6077500Y-14852976D01*
X6077500Y-14852976D02*
X6067976Y-14862500D01*
X6067976Y-14862500D02*
X6048929Y-14872024D01*
X6048929Y-14872024D02*
X6029881Y-14872024D01*
X6029881Y-14872024D02*
X6010833Y-14862500D01*
X6010833Y-14862500D02*
X6001309Y-14852976D01*
X6001309Y-14852976D02*
X5991786Y-14833928D01*
X5991786Y-14833928D02*
X5982262Y-14795833D01*
X5982262Y-14795833D02*
X5982262Y-14748214D01*
X5982262Y-14748214D02*
X5991786Y-14710119D01*
X5991786Y-14710119D02*
X6001309Y-14691071D01*
X6001309Y-14691071D02*
X6010833Y-14681548D01*
X6010833Y-14681548D02*
X6029881Y-14672024D01*
X6182262Y-14872024D02*
X6182262Y-14738690D01*
X6182262Y-14757738D02*
X6191786Y-14748214D01*
X6191786Y-14748214D02*
X6210833Y-14738690D01*
X6210833Y-14738690D02*
X6239405Y-14738690D01*
X6239405Y-14738690D02*
X6258452Y-14748214D01*
X6258452Y-14748214D02*
X6267976Y-14767262D01*
X6267976Y-14767262D02*
X6267976Y-14872024D01*
X6267976Y-14767262D02*
X6277500Y-14748214D01*
X6277500Y-14748214D02*
X6296548Y-14738690D01*
X6296548Y-14738690D02*
X6325119Y-14738690D01*
X6325119Y-14738690D02*
X6344167Y-14748214D01*
X6344167Y-14748214D02*
X6353690Y-14767262D01*
X6353690Y-14767262D02*
X6353690Y-14872024D01*
X6448929Y-14872024D02*
X6448929Y-14738690D01*
X6448929Y-14757738D02*
X6458452Y-14748214D01*
X6458452Y-14748214D02*
X6477500Y-14738690D01*
X6477500Y-14738690D02*
X6506071Y-14738690D01*
X6506071Y-14738690D02*
X6525119Y-14748214D01*
X6525119Y-14748214D02*
X6534643Y-14767262D01*
X6534643Y-14767262D02*
X6534643Y-14872024D01*
X6534643Y-14767262D02*
X6544167Y-14748214D01*
X6544167Y-14748214D02*
X6563214Y-14738690D01*
X6563214Y-14738690D02*
X6591786Y-14738690D01*
X6591786Y-14738690D02*
X6610833Y-14748214D01*
X6610833Y-14748214D02*
X6620357Y-14767262D01*
X6620357Y-14767262D02*
X6620357Y-14872024D01*
X7010833Y-14662500D02*
X6839405Y-14919643D01*
X7267976Y-14672024D02*
X7287024Y-14672024D01*
X7287024Y-14672024D02*
X7306072Y-14681548D01*
X7306072Y-14681548D02*
X7315595Y-14691071D01*
X7315595Y-14691071D02*
X7325119Y-14710119D01*
X7325119Y-14710119D02*
X7334643Y-14748214D01*
X7334643Y-14748214D02*
X7334643Y-14795833D01*
X7334643Y-14795833D02*
X7325119Y-14833928D01*
X7325119Y-14833928D02*
X7315595Y-14852976D01*
X7315595Y-14852976D02*
X7306072Y-14862500D01*
X7306072Y-14862500D02*
X7287024Y-14872024D01*
X7287024Y-14872024D02*
X7267976Y-14872024D01*
X7267976Y-14872024D02*
X7248929Y-14862500D01*
X7248929Y-14862500D02*
X7239405Y-14852976D01*
X7239405Y-14852976D02*
X7229881Y-14833928D01*
X7229881Y-14833928D02*
X7220357Y-14795833D01*
X7220357Y-14795833D02*
X7220357Y-14748214D01*
X7220357Y-14748214D02*
X7229881Y-14710119D01*
X7229881Y-14710119D02*
X7239405Y-14691071D01*
X7239405Y-14691071D02*
X7248929Y-14681548D01*
X7248929Y-14681548D02*
X7267976Y-14672024D01*
X7420357Y-14852976D02*
X7429881Y-14862500D01*
X7429881Y-14862500D02*
X7420357Y-14872024D01*
X7420357Y-14872024D02*
X7410833Y-14862500D01*
X7410833Y-14862500D02*
X7420357Y-14852976D01*
X7420357Y-14852976D02*
X7420357Y-14872024D01*
X7553691Y-14672024D02*
X7572738Y-14672024D01*
X7572738Y-14672024D02*
X7591786Y-14681548D01*
X7591786Y-14681548D02*
X7601310Y-14691071D01*
X7601310Y-14691071D02*
X7610833Y-14710119D01*
X7610833Y-14710119D02*
X7620357Y-14748214D01*
X7620357Y-14748214D02*
X7620357Y-14795833D01*
X7620357Y-14795833D02*
X7610833Y-14833928D01*
X7610833Y-14833928D02*
X7601310Y-14852976D01*
X7601310Y-14852976D02*
X7591786Y-14862500D01*
X7591786Y-14862500D02*
X7572738Y-14872024D01*
X7572738Y-14872024D02*
X7553691Y-14872024D01*
X7553691Y-14872024D02*
X7534643Y-14862500D01*
X7534643Y-14862500D02*
X7525119Y-14852976D01*
X7525119Y-14852976D02*
X7515595Y-14833928D01*
X7515595Y-14833928D02*
X7506072Y-14795833D01*
X7506072Y-14795833D02*
X7506072Y-14748214D01*
X7506072Y-14748214D02*
X7515595Y-14710119D01*
X7515595Y-14710119D02*
X7525119Y-14691071D01*
X7525119Y-14691071D02*
X7534643Y-14681548D01*
X7534643Y-14681548D02*
X7553691Y-14672024D01*
X7801310Y-14672024D02*
X7706072Y-14672024D01*
X7706072Y-14672024D02*
X7696548Y-14767262D01*
X7696548Y-14767262D02*
X7706072Y-14757738D01*
X7706072Y-14757738D02*
X7725119Y-14748214D01*
X7725119Y-14748214D02*
X7772738Y-14748214D01*
X7772738Y-14748214D02*
X7791786Y-14757738D01*
X7791786Y-14757738D02*
X7801310Y-14767262D01*
X7801310Y-14767262D02*
X7810833Y-14786309D01*
X7810833Y-14786309D02*
X7810833Y-14833928D01*
X7810833Y-14833928D02*
X7801310Y-14852976D01*
X7801310Y-14852976D02*
X7791786Y-14862500D01*
X7791786Y-14862500D02*
X7772738Y-14872024D01*
X7772738Y-14872024D02*
X7725119Y-14872024D01*
X7725119Y-14872024D02*
X7706072Y-14862500D01*
X7706072Y-14862500D02*
X7696548Y-14852976D01*
X7991786Y-14672024D02*
X7896548Y-14672024D01*
X7896548Y-14672024D02*
X7887024Y-14767262D01*
X7887024Y-14767262D02*
X7896548Y-14757738D01*
X7896548Y-14757738D02*
X7915595Y-14748214D01*
X7915595Y-14748214D02*
X7963214Y-14748214D01*
X7963214Y-14748214D02*
X7982262Y-14757738D01*
X7982262Y-14757738D02*
X7991786Y-14767262D01*
X7991786Y-14767262D02*
X8001310Y-14786309D01*
X8001310Y-14786309D02*
X8001310Y-14833928D01*
X8001310Y-14833928D02*
X7991786Y-14852976D01*
X7991786Y-14852976D02*
X7982262Y-14862500D01*
X7982262Y-14862500D02*
X7963214Y-14872024D01*
X7963214Y-14872024D02*
X7915595Y-14872024D01*
X7915595Y-14872024D02*
X7896548Y-14862500D01*
X7896548Y-14862500D02*
X7887024Y-14852976D01*
X8191786Y-14872024D02*
X8077500Y-14872024D01*
X8134643Y-14872024D02*
X8134643Y-14672024D01*
X8134643Y-14672024D02*
X8115595Y-14700595D01*
X8115595Y-14700595D02*
X8096548Y-14719643D01*
X8096548Y-14719643D02*
X8077500Y-14729167D01*
X8267976Y-14672024D02*
X8267976Y-14710119D01*
X8344167Y-14672024D02*
X8344167Y-14710119D01*
X8639405Y-14948214D02*
X8629881Y-14938690D01*
X8629881Y-14938690D02*
X8610834Y-14910119D01*
X8610834Y-14910119D02*
X8601310Y-14891071D01*
X8601310Y-14891071D02*
X8591786Y-14862500D01*
X8591786Y-14862500D02*
X8582262Y-14814881D01*
X8582262Y-14814881D02*
X8582262Y-14776786D01*
X8582262Y-14776786D02*
X8591786Y-14729167D01*
X8591786Y-14729167D02*
X8601310Y-14700595D01*
X8601310Y-14700595D02*
X8610834Y-14681548D01*
X8610834Y-14681548D02*
X8629881Y-14652976D01*
X8629881Y-14652976D02*
X8639405Y-14643452D01*
X8696548Y-14672024D02*
X8820357Y-14672024D01*
X8820357Y-14672024D02*
X8753691Y-14748214D01*
X8753691Y-14748214D02*
X8782262Y-14748214D01*
X8782262Y-14748214D02*
X8801310Y-14757738D01*
X8801310Y-14757738D02*
X8810834Y-14767262D01*
X8810834Y-14767262D02*
X8820357Y-14786309D01*
X8820357Y-14786309D02*
X8820357Y-14833928D01*
X8820357Y-14833928D02*
X8810834Y-14852976D01*
X8810834Y-14852976D02*
X8801310Y-14862500D01*
X8801310Y-14862500D02*
X8782262Y-14872024D01*
X8782262Y-14872024D02*
X8725119Y-14872024D01*
X8725119Y-14872024D02*
X8706072Y-14862500D01*
X8706072Y-14862500D02*
X8696548Y-14852976D01*
X8896548Y-14691071D02*
X8906072Y-14681548D01*
X8906072Y-14681548D02*
X8925119Y-14672024D01*
X8925119Y-14672024D02*
X8972738Y-14672024D01*
X8972738Y-14672024D02*
X8991786Y-14681548D01*
X8991786Y-14681548D02*
X9001310Y-14691071D01*
X9001310Y-14691071D02*
X9010834Y-14710119D01*
X9010834Y-14710119D02*
X9010834Y-14729167D01*
X9010834Y-14729167D02*
X9001310Y-14757738D01*
X9001310Y-14757738D02*
X8887024Y-14872024D01*
X8887024Y-14872024D02*
X9010834Y-14872024D01*
X9248929Y-14872024D02*
X9248929Y-14672024D01*
X9334643Y-14872024D02*
X9334643Y-14767262D01*
X9334643Y-14767262D02*
X9325119Y-14748214D01*
X9325119Y-14748214D02*
X9306072Y-14738690D01*
X9306072Y-14738690D02*
X9277500Y-14738690D01*
X9277500Y-14738690D02*
X9258453Y-14748214D01*
X9258453Y-14748214D02*
X9248929Y-14757738D01*
X9458453Y-14872024D02*
X9439405Y-14862500D01*
X9439405Y-14862500D02*
X9429881Y-14852976D01*
X9429881Y-14852976D02*
X9420358Y-14833928D01*
X9420358Y-14833928D02*
X9420358Y-14776786D01*
X9420358Y-14776786D02*
X9429881Y-14757738D01*
X9429881Y-14757738D02*
X9439405Y-14748214D01*
X9439405Y-14748214D02*
X9458453Y-14738690D01*
X9458453Y-14738690D02*
X9487024Y-14738690D01*
X9487024Y-14738690D02*
X9506072Y-14748214D01*
X9506072Y-14748214D02*
X9515596Y-14757738D01*
X9515596Y-14757738D02*
X9525119Y-14776786D01*
X9525119Y-14776786D02*
X9525119Y-14833928D01*
X9525119Y-14833928D02*
X9515596Y-14852976D01*
X9515596Y-14852976D02*
X9506072Y-14862500D01*
X9506072Y-14862500D02*
X9487024Y-14872024D01*
X9487024Y-14872024D02*
X9458453Y-14872024D01*
X9639405Y-14872024D02*
X9620358Y-14862500D01*
X9620358Y-14862500D02*
X9610834Y-14843452D01*
X9610834Y-14843452D02*
X9610834Y-14672024D01*
X9791786Y-14862500D02*
X9772739Y-14872024D01*
X9772739Y-14872024D02*
X9734643Y-14872024D01*
X9734643Y-14872024D02*
X9715596Y-14862500D01*
X9715596Y-14862500D02*
X9706072Y-14843452D01*
X9706072Y-14843452D02*
X9706072Y-14767262D01*
X9706072Y-14767262D02*
X9715596Y-14748214D01*
X9715596Y-14748214D02*
X9734643Y-14738690D01*
X9734643Y-14738690D02*
X9772739Y-14738690D01*
X9772739Y-14738690D02*
X9791786Y-14748214D01*
X9791786Y-14748214D02*
X9801310Y-14767262D01*
X9801310Y-14767262D02*
X9801310Y-14786309D01*
X9801310Y-14786309D02*
X9706072Y-14805357D01*
X9877500Y-14862500D02*
X9896548Y-14872024D01*
X9896548Y-14872024D02*
X9934643Y-14872024D01*
X9934643Y-14872024D02*
X9953691Y-14862500D01*
X9953691Y-14862500D02*
X9963215Y-14843452D01*
X9963215Y-14843452D02*
X9963215Y-14833928D01*
X9963215Y-14833928D02*
X9953691Y-14814881D01*
X9953691Y-14814881D02*
X9934643Y-14805357D01*
X9934643Y-14805357D02*
X9906072Y-14805357D01*
X9906072Y-14805357D02*
X9887024Y-14795833D01*
X9887024Y-14795833D02*
X9877500Y-14776786D01*
X9877500Y-14776786D02*
X9877500Y-14767262D01*
X9877500Y-14767262D02*
X9887024Y-14748214D01*
X9887024Y-14748214D02*
X9906072Y-14738690D01*
X9906072Y-14738690D02*
X9934643Y-14738690D01*
X9934643Y-14738690D02*
X9953691Y-14748214D01*
X10029881Y-14948214D02*
X10039405Y-14938690D01*
X10039405Y-14938690D02*
X10058453Y-14910119D01*
X10058453Y-14910119D02*
X10067977Y-14891071D01*
X10067977Y-14891071D02*
X10077500Y-14862500D01*
X10077500Y-14862500D02*
X10087024Y-14814881D01*
X10087024Y-14814881D02*
X10087024Y-14776786D01*
X10087024Y-14776786D02*
X10077500Y-14729167D01*
X10077500Y-14729167D02*
X10067977Y-14700595D01*
X10067977Y-14700595D02*
X10058453Y-14681548D01*
X10058453Y-14681548D02*
X10039405Y-14652976D01*
X10039405Y-14652976D02*
X10029881Y-14643452D01*
M02*
